<svg width="230.78" height="230.78" version="1.1" viewBox="0 0 230.77866 230.77747" space="preserve" xmlns="http://www.w3.org/2000/svg"><metadata><format>image/svg+xml</format><type/><title/></metadata><g transform="matrix(1.3333 0 0 -1.3333 0 293.59)"><g transform="scale(.1)" fill="#231f20"><path d="m856.32 2195.1c-60.535 0-116.55-8.33-167.9-20.47-50.918-12.03-97.734-28.68-140.14-48.69-128.64-60.68-229.61-148.24-306.21-259.35-25.007-36.26-48.125-77.51-67.351-121.48-37.989-86.92-64.16-188.64-64.16-313.5 0-60.33 8.906-116.53 20.933-167.44 12.113-51.18 28.586-97.26 48.696-140.14 59.734-127.43 148.14-230.95 258.89-306.68 37.09-25.348 77.356-48.039 121.48-67.328 87.735-38.352 188.18-64.16 313.5-64.16 118.5 0 222.67 30.289 308.05 69.16 86.92 39.578 158.76 93.711 221.12 156.07 63 62.988 114.06 137.4 152.88 224.31 39.07 87.45 64.85 188.9 64.16 313.5-0.65 119.34-30.1 222.12-69.16 308.04-39.74 87.45-92.36 157.44-156.06 221.13-62.6 62.6-136.4 113.78-224.32 152.88-63.83 28.38-138.49 51-222.95 60.06-28.113 3.02-61.648 5.47-90.547 4.09h-0.918zm-10.464 6.83h39.136c0.102-0.35 0.371-0.53 0.91-0.45 137.49-3.47 250.96-35.88 348.07-81.9 146.21-69.29 259.4-169.52 347.62-297.12 29.33-42.42 55.61-89.14 76.91-138.32 43.83-101.26 72.35-216.19 72.34-358.09-0.01-69.33-9.93-133.03-23.66-191.1-40.87-172.89-126.22-306.86-232.5-413.15-71.83-71.808-155.87-130.4-254.82-175.17-98.45-44.558-215.53-75.539-354.89-75.531-139.36 0-256.01 31.402-354.45 75.531-99.141 44.442-182.95 103.78-254.8 175.63-70.949 70.949-132.28 154.14-177 252.98-22.195 49.06-41.57 101.74-55.059 160.16-13.465 58.34-23.66 121.82-23.66 191.56 0 141.09 28.301 256.8 72.801 357.18 43.984 99.22 102.12 185.84 173.36 257.08 72.043 72.04 153.57 132.92 251.15 178.81 97.335 45.78 210.92 77.72 348.54 81.9" fill-rule="evenodd"/><path d="m819.92 2156h85.547v-138.78c-30.442-0.05-58.789-2.19-86.453-5.01v142.42c-0.024 0.78 0.332 1.18 0.906 1.37" fill-rule="evenodd"/><path d="m1090.2 1966.7c-15.81-48.96-32.35-97.18-47.77-146.52-33.96 11.58-69.432 23.67-113.76 23.67-68.426 0-120.28-17.08-151.06-55.06-10.562-13.04-18.777-27.5-21.843-46.87-6.446-40.69 13.769-64.54 34.582-83.26 2.117-1.91 7.871-5.6 8.64-8.19 1.172-3.94 0-11.68 0-17.74v-264.82c-78.32 35.12-162.3 62.23-221.12 117.4-28.718 26.92-52.808 58.94-68.711 100.55-15.601 40.85-23.757 92.87-13.191 145.6 9.082 45.4 29.836 82.72 55.051 114.2 62.613 78.15 156.57 126.49 278.01 144.7 89.644 13.43 190.03 3.1 261.17-23.66" fill-rule="evenodd"/><path d="m819.46 1070.8c-1.067 240.1-0.149 482.15-0.449 723 16.422 9.35 35.132 19.55 58.687 23.67 8.117 1.41 17.102 3.69 25.031 4.55 3.758 0.4 2.735-3.83 2.735-9.1-8e-3 -243.69 0-489.61 0-732.56-6.824-8.05-24.551-11.39-40.496-13.2-16.36-1.86-34.203-2.46-45.508 3.64" fill-rule="evenodd"/><path d="m925.94 1580c51.445-21.64 103.05-45.93 152.88-70.98 48.95-24.61 97.77-52.01 133.77-90.09 36.18-38.27 60.9-89.55 69.62-154.24 9.79-72.8-10.48-135.02-37.78-180.64-26.88-44.96-65.58-83.94-110.1-113.75-45.12-30.219-97.73-52.54-156.52-67.34-59.122-14.899-131.55-23.34-201.58-15.02-66.734 7.942-122.78 25.43-174.26 49.141 17.058 54.828 35.566 108.22 52.773 162.89 41.836-19.66 88.008-40.47 141.97-50.05 91.699-16.28 174.04 12.85 205.65 73.71 11.43 21.98 16.31 48.57 10.01 80.08-10.8 54.09-44.638 81.96-86.9 106.02v268.91c-0.042 0.64-0.07 1.28 0.458 1.36" fill-rule="evenodd"/><path d="m905.47 725.02c-28.672 0.3-58.543-0.61-86.453 0.46v138.32c28.535-0.692 58.64 0.488 82.808 2.73 0.688 0.059 1.321-0.133 2.043-0.32 2.664-0.723 1.602-2.391 1.602-6.512-8e-3 -43.449 0-92.648 0-134.68" fill-rule="evenodd"/><path d="m779.14 1669.6 154.15-92.71-6.113-267.16-136.5 61.92-11.543 297.95"/><path d="m905.47 725.02h-86.531v1431h86.531v-1431"/></g></g></svg>