<svg xmlns="http://www.w3.org/2000/svg" width="240" height="309.747" viewBox="0 0 240 245"><g fill="#231f20" fill-rule="evenodd"><path d="M118.738.952c-8.394 0-16.162 1.156-23.28 2.839-7.062 1.669-13.552 3.977-19.433 6.75-17.838 8.415-31.839 20.556-42.46 35.963-3.467 5.028-6.673 10.75-9.338 16.845-5.268 12.052-8.896 26.158-8.896 43.47 0 8.366 1.234 16.16 2.902 23.218 1.678 7.098 3.964 13.486 6.751 19.432 8.284 17.67 20.542 32.025 35.9 42.523a102.37 102.37 0 0 0 16.845 9.339c12.164 5.316 26.092 8.896 43.47 8.896 16.432 0 30.874-4.2 42.713-9.59 12.052-5.489 22.015-12.994 30.663-21.64 8.733-8.736 15.814-19.054 21.198-31.105 5.418-12.127 8.99-26.193 8.895-43.47-.09-16.549-4.173-30.8-9.59-42.714-5.51-12.124-12.807-21.83-21.64-30.661-8.68-8.68-18.911-15.778-31.105-21.199A102.936 102.936 0 0 0 131.42 1.52c-3.896-.419-8.547-.759-12.554-.568h-.127zm-1.451-.947h5.426c.014.05.053.074.126.063 19.065.483 34.798 4.975 48.265 11.357 20.272 9.607 35.97 23.504 48.201 41.199 4.067 5.88 7.711 12.36 10.663 19.18 6.08 14.041 10.033 29.976 10.032 49.652 0 9.613-1.377 18.445-3.28 26.499-5.668 23.973-17.501 42.549-32.241 57.286-9.958 9.959-21.612 18.083-35.331 24.291-13.652 6.177-29.887 10.473-49.211 10.473-19.322 0-35.497-4.354-49.148-10.473-13.747-6.161-25.369-14.39-35.332-24.354-9.838-9.838-18.342-21.373-24.542-35.078-3.077-6.803-5.764-14.107-7.634-22.208C1.414 139.802 0 131 0 121.329c0-19.562 3.924-35.606 10.094-49.525 6.1-13.759 14.16-25.77 24.039-35.648 9.988-9.988 21.292-18.43 34.826-24.793C82.454 5.015 98.204.587 117.287.005"/><path d="M112.114 10.416c.053-.012.06.024.063.063 5.023 2.333 9.309 5.145 11.735 9.841 1.322 2.561 1.713 5.832 1.01 9.023-.633 2.866-1.86 5.406-3.092 7.697-2.376 4.419-5.92 8.91-6.435 15.141-.29 3.487.253 6.804.882 9.78.621 2.939 1.46 5.61 2.588 8.139-4.282-3.345-7.972-7.927-8.455-14.89-.163-2.35.208-4.703.757-7.003 1.446-6.051 4.195-11.424 6.436-16.908.915-2.24 2.17-4.324 1.955-7.319-.2-2.781-1.655-5.205-2.965-7.381-1.412-2.347-2.982-4.27-4.479-6.183M91.925 19.941c.053-.01.059.026.062.064 2.568 1.823 4.65 4.06 6.435 6.814 1.703 2.625 3.356 5.914 3.345 9.905-.013 4.465-3.285 6.27-6.184 8.076-3.023 1.885-6.711 3.865-7.065 8.201-.551 6.739 2.7 12.867 5.74 16.404.178.207.538.356.506.695-3.067-1.659-5.611-3.53-7.887-6.183-2.187-2.552-4.424-6.788-3.596-11.23.71-3.812 3.545-6.24 6.056-8.202 1.213-.948 2.695-2.012 4.038-3.092 1.636-1.316 3.365-2.768 3.534-5.237.223-3.27-.84-6.059-1.767-8.707-.982-2.802-2.18-5.246-3.217-7.508M137.73 25.053c-.013-.054.023-.06.062-.064 3.932.81 7.296 2.546 9.527 5.174 2.017 2.38 3.822 6.996 2.208 11.23-.963 2.526-3.102 3.984-4.859 5.742-1.81 1.812-3.364 3.828-3.596 7.004-.421 5.789.192 11.581-.188 17.224-2.29-3.578-3.564-7.627-4.355-12.683-.265-1.705-.536-3.455-.441-5.173.195-3.511 1.647-6.066 3.217-8.076 1.891-2.418 4.45-4.388 4.67-8.012.165-2.736-1.023-5.084-2.146-7.003-.56-.959-1.24-1.852-1.892-2.713-.709-.936-1.381-1.904-2.208-2.65M172.556 116.472a4739.6 4739.6 0 0 0-1.01 31.545c4.333-.624 7.58-2.357 10.031-5.046 2.347-2.575 4.29-6.128 4.29-10.852 0-4.466-1.754-8.024-3.974-10.536-2.334-2.642-5.268-4.508-9.274-5.3-.074.01-.068.1-.063.189zM67.193 98.744c1.383 9.897 1.465 20.63 1.955 31.419.649 14.278 1.356 28.624 2.777 41.766-1.085-18.864-1.189-40.238-.884-60.189.039-2.499.007-6.141.946-7.885.292-.542.942-1.48 1.515-1.983.71-.624 1.05-.787 1.748-1.124 3.004-1.457 7.429-1.112 11.69-1.31 4.275-.2 8.533-.389 12.051-1.01-5.774-.22-11.525-1.02-17.035-2.019-2.69-.488-5.32-.945-7.824-1.702-3.674-1.112-7.19-2.446-8.453-5.806.564 3.139 1.045 6.49 1.514 9.843zm45.614-19.433c-7.9 0-14.794.562-22.082 1.388-5.53.628-10.383 1.214-14.826 2.902-1.502.571-3.282 1.371-3.217 2.714.066 1.388 2.415 2.204 3.911 2.713 1.783.605 3.5 1.05 5.3 1.388 11.472 2.153 23.693 2.839 37.097 2.839 8.595-.002 17.147-.311 25.3-1.136 5.769-.584 11.985-1.372 16.909-3.091 1.44-.503 3.896-1.353 3.912-2.776.016-1.515-2.776-2.5-4.416-3.03-1.518-.489-4.168-1.06-5.995-1.387-8.497-1.52-17.548-2.06-27.066-2.46-4.686-.199-10.012-.287-14.7-.064-.042.002-.085 0-.127 0zm60.505 14.385c11.464 1.284 19.525 5.907 25.679 12.681 4.48 4.934 8.097 11.015 9.653 19.116.523 2.73.948 5.766.756 8.771-.76 11.872-5.301 20.256-11.67 26.625-6.397 6.396-14.922 10.802-26.942 11.356-.132 3.475-.256 6.982-.377 10.537-.04 1.146.122 2.39-.064 3.406-.658 3.588-4.642 5.819-7.571 7.256-9.885 4.85-23.247 6.588-36.972 7.192-9.553.421-19.221-.068-27.95-1.261-8.655-1.185-16.857-3.038-23.153-6.373-3.052-1.615-6.388-3.665-6.688-8.138-.3-4.462-.444-9.483-.632-14.133-.383-9.5-.922-18.894-1.324-28.202-.785-18.154-1.817-36.385-2.587-54.637-.018-.437-.157-1.021.19-1.388.25-2.257 2.187-3.397 3.91-4.353 5.25-2.915 12.473-4.351 19.433-5.363a207.454 207.454 0 0 1 22.65-2.02c13.251-.457 27.346.021 39.243 1.83 4.839.737 9.337 1.478 13.753 2.777 4.359 1.281 9.048 2.93 10.915 6.436-.057 2.654-.193 5.23-.252 7.885"/></g></svg>