<svg xmlns="http://www.w3.org/2000/svg" width="267.8" height="337.373" viewBox="0 0 267 270"><g fill="#231f20" fill-rule="evenodd"><path d="M132.495 1.056c-9.367 0-18.034 1.29-25.978 3.168-7.88 1.861-15.122 4.437-21.682 7.532-19.905 9.39-35.528 22.939-47.382 40.13-3.868 5.609-7.446 11.994-10.417 18.795-5.878 13.45-9.928 29.188-9.928 48.508 0 9.334 1.375 18.03 3.237 25.906 1.874 7.92 4.424 15.049 7.534 21.684 9.245 19.717 22.92 35.734 40.058 47.45a114.228 114.228 0 0 0 18.799 10.419c13.572 5.933 29.116 9.927 48.505 9.927 18.335 0 34.452-4.686 47.663-10.7 13.447-6.125 24.565-14.499 34.212-24.148 9.745-9.747 17.647-21.26 23.656-34.707 6.044-13.532 10.032-29.23 9.927-48.507-.102-18.466-4.66-34.368-10.703-47.661-6.148-13.53-14.292-24.36-24.145-34.215-9.687-9.685-21.104-17.605-34.71-23.654a114.908 114.908 0 0 0-34.497-9.294c-4.347-.468-9.537-.846-14.009-.633h-.14zM130.876 0h6.055c.016.055.058.081.14.07 21.274.537 38.832 5.551 53.857 12.673 22.621 10.72 40.137 26.228 53.785 45.97a125.484 125.484 0 0 1 11.898 21.403c6.785 15.668 11.194 33.45 11.194 55.405 0 10.727-1.536 20.582-3.661 29.567-6.324 26.752-19.53 47.48-35.973 63.925-11.114 11.112-24.118 20.18-39.424 27.104-15.236 6.894-33.351 11.687-54.915 11.687-21.561 0-39.61-4.86-54.84-11.687-15.343-6.875-28.31-16.056-39.427-27.174C28.587 217.964 19.1 205.093 12.18 189.8c-3.434-7.59-6.433-15.743-8.52-24.78C1.577 155.993 0 146.17 0 135.38c0-21.83 4.38-39.733 11.264-55.264 6.807-15.35 15.801-28.755 26.825-39.776 11.144-11.148 23.758-20.567 38.86-27.667C92.008 5.59 109.58.647 130.876 0"/><path d="M126.02 52.167c-13.699 1.744-24.007 6.59-32.807 13.236-8.56 6.458-15.618 15.084-20.28 25.625-1.541 3.495-2.785 7.332-3.799 11.547-1.015 4.217-1.9 8.746-1.9 13.376 0 5.13.263 9.726 1.125 14.08 1.295 6.526 3.148 12.118 5.704 17.317.857 1.748 1.584 3.532 2.463 5.21 8.712 16.643 19.816 31.622 30.623 45.902-1.434 2.06-2.916 4.075-4.363 6.124 1.03 1.712 2.119 3.295 4.646 3.732.776.133 1.844.234 1.972.773.25 1.065-1.737 1.899-2.465 2.324-2.119 1.24-4.48 1.85-7.673 1.76-1.435-.04-2.95-.185-3.871-.845.465-.7 1.33-.533 1.9-.773 1.6-.678 2.118-3.046 2.675-4.999.122-.428.387-1.097.35-1.337-.067-.46-1.723-1.672-2.39-2.254-12.416-10.758-24.14-22.374-35.202-34.426-7.86-8.562-15.794-18.496-22.67-28.442-.644-.93-1.114-1.949-1.757-2.886-5.138-7.47-8.827-15.824-10.35-26.752-.782-5.607-.776-11.756.068-17.39 1.624-10.826 5.653-19.566 10.562-26.541 5.02-7.133 11.58-13.219 19.289-17.81 7.786-4.64 17.201-8.043 28.795-8.59 8.693-.412 16.166 1.053 22.529 3.239 6.414 2.204 12.08 5.13 16.825 8.8M167.483 205.148c.23 1.157.56 1.933.918 3.027.427 1.316.674 2.489 1.619 3.098.704.453 2.361.539 2.392.984.025.385-1.273.626-1.688.707-3.864.736-7.352-.084-9.857-1.55-.715-.42-2.719-1.249-2.464-2.325.182-.77 2.066-.672 2.958-.984 1.728-.61 2.678-1.949 3.659-3.45-1.481-2.274-3.147-4.362-4.647-6.618 12.25-16.256 24.836-33.556 33.934-53.505.418-.916.638-1.832.985-2.815 2.603-7.366 4.912-15.849 4.435-25.908-.891-18.885-8.311-32.372-17.81-43.016-4.67-5.229-10.726-9.714-17.178-13.234-6.596-3.596-14.328-6.018-23.092-7.252 8.878-6.519 19.362-11.431 33.934-12.108 12.542-.584 23.236 2.522 31.258 6.757 8.35 4.41 15.066 10.077 20.628 17.179 5.337 6.814 9.79 15.66 11.829 25.977 1.076 5.473 1.457 11.695.843 17.53-1.207 11.462-4.507 20.38-9.646 28.16-2.532 3.837-4.949 7.657-7.674 11.265-16.266 21.55-35.258 40.581-55.336 58.08"/><path d="M135.1 221.48c.943 1.846 1.927 3.496 4.296 4.155.752.208 1.693.334 1.759.985.096.983-1.919 1.685-2.744 2.041-2.276.979-5.225 1.306-8.098.775-1.32-.243-2.657-.492-3.45-1.268.232-.501.892-.363 1.268-.421 3.034-.486 3.184-3.783 4.504-6.055-16.94-18.53-32.819-38.495-46.465-60.756-2.248-3.67-4.376-7.527-6.406-11.475-.277-.542-.392-1.05-.634-1.62-.2-.481-.598-.937-.843-1.408-3.523-6.728-6.157-14.916-6.69-24.5-.983-17.769 4.791-30.998 12.25-41.044 7.609-10.242 17.937-17.957 31.47-22.176a59.134 59.134 0 0 1 7.181-1.758c7.697-1.378 17.445-1.127 24.851.633 14.743 3.5 25.411 11.033 33.722 20.768 5.454 6.385 9.833 14.445 12.39 23.936 1.316 4.884 1.972 10.428 1.972 16.192 0 5.72-.854 11.063-2.182 15.91-.658 2.4-1.431 4.647-2.18 6.9-.355 1.058-1.007 2.071-1.482 3.098-6.061 13.192-14.076 25.701-22.106 36.89-7.652 10.669-15.558 20.66-23.935 30.554-2.76 3.259-5.71 6.353-8.448 9.644"/></g></svg>