<?xml version="1.0" encoding="UTF-8" standalone="no"?>
<!-- Created with Inkscape (http://www.inkscape.org/) -->

<svg
   xmlns:dc="http://purl.org/dc/elements/1.1/"
   xmlns:cc="http://creativecommons.org/ns#"
   xmlns:rdf="http://www.w3.org/1999/02/22-rdf-syntax-ns#"
   xmlns:svg="http://www.w3.org/2000/svg"
   xmlns="http://www.w3.org/2000/svg"
   xmlns:sodipodi="http://sodipodi.sourceforge.net/DTD/sodipodi-0.dtd"
   xmlns:inkscape="http://www.inkscape.org/namespaces/inkscape"
   version="1.1"
   id="svg2"
   xml:space="preserve"
   width="267.79999"
   height="337.37332"
   viewBox="0 0 267 270"
   sodipodi:docname="arrkom-square.svg"
   inkscape:version="0.92.2 5c3e80d, 2017-08-06"><metadata
     id="metadata8"><rdf:RDF><cc:Work
         rdf:about=""><dc:format>image/svg+xml</dc:format><dc:type
           rdf:resource="http://purl.org/dc/dcmitype/StillImage" /><dc:title></dc:title></cc:Work></rdf:RDF></metadata><defs
     id="defs6" /><sodipodi:namedview
     pagecolor="#ffffff"
     bordercolor="#666666"
     borderopacity="1"
     objecttolerance="10"
     gridtolerance="10"
     guidetolerance="10"
     inkscape:pageopacity="0"
     inkscape:pageshadow="2"
     inkscape:window-width="640"
     inkscape:window-height="480"
     id="namedview4"
     showgrid="false"
     inkscape:zoom="0.69952182"
     inkscape:cx="133.89999"
     inkscape:cy="168.68666"
     inkscape:window-x="0"
     inkscape:window-y="0"
     inkscape:window-maximized="0"
     inkscape:current-layer="g10" /><g
     id="g10"
     inkscape:groupmode="layer"
     inkscape:label="ink_ext_XXXXXX"
     transform="matrix(1.3333333,0,0,-1.3333333,0,337.37333)"><g
       id="g12"
       transform="scale(0.1)"><path
         d="m 993.711,2522.38 c -70.254,0 -135.254,-9.68 -194.832,-23.76 -59.106,-13.96 -113.418,-33.28 -162.617,-56.49 -149.289,-70.43 -266.457,-172.04 -355.364,-300.97 -29.011,-42.07 -55.847,-89.96 -78.125,-140.97 -44.089,-100.87 -74.46,-218.91 -74.46,-363.81 0,-70 10.308,-135.22 24.277,-194.29 14.051,-59.4 33.18,-112.87 56.504,-162.63 69.336,-147.88 171.902,-268.01 300.437,-355.878 43.035,-29.422 89.766,-55.762 140.989,-78.141 101.793,-44.5 218.367,-74.453 363.79,-74.453 137.51,0 258.39,35.141 357.47,80.25 100.85,45.934 184.24,108.742 256.59,181.112 73.09,73.1 132.35,159.45 177.42,260.3 45.33,101.49 75.24,219.22 74.45,363.8 -0.76,138.5 -34.95,257.76 -80.27,357.46 -46.11,101.48 -107.19,182.7 -181.09,256.61 -72.65,72.64 -158.28,132.04 -260.32,177.41 -74.06,32.94 -160.73,59.18 -258.73,69.7 -32.6,3.51 -71.53,6.35 -105.064,4.75 -0.34,-0.01 -0.711,0 -1.055,0 z m -12.141,7.92 c 15.141,0 30.28,0 45.41,0 0.12,-0.41 0.44,-0.61 1.05,-0.52 159.56,-4.03 291.24,-41.64 403.93,-95.05 169.66,-80.4 301.03,-196.71 403.39,-344.78 34.03,-49.22 64.53,-103.44 89.23,-160.52 50.89,-117.51 83.96,-250.88 83.96,-415.54 0,-80.45 -11.52,-154.36 -27.46,-221.75 C 1933.65,1091.5 1834.61,936.039 1711.28,812.699 1627.93,729.359 1530.4,661.359 1415.6,609.422 1301.33,557.719 1165.47,521.77 1003.74,521.77 842.031,521.77 706.672,558.219 592.434,609.422 477.371,660.988 380.117,729.84 296.738,813.23 214.402,895.57 143.242,992.109 91.3477,1106.8 65.5938,1163.73 43.1055,1224.87 27.4531,1292.65 11.8281,1360.35 0,1434.02 0,1514.95 c 0,163.72 32.8516,298 84.4805,414.48 51.0545,115.13 118.5075,215.66 201.1835,298.32 83.582,83.61 178.191,154.25 291.453,207.5 112.942,53.13 244.738,90.2 404.453,95.05"
         style="fill:#231f20;fill-opacity:1;fill-rule:evenodd;stroke:none"
         id="path14"
         inkscape:connector-curvature="0" /><path
         d="m 945.145,2139.05 c -102.735,-13.08 -180.047,-49.43 -246.051,-99.27 -64.192,-48.44 -117.129,-113.13 -152.09,-192.19 -11.566,-26.21 -20.891,-54.99 -28.496,-86.6 -7.617,-31.63 -14.25,-65.6 -14.25,-100.32 0,-38.48 1.972,-72.95 8.437,-105.6 9.707,-48.95 23.606,-90.89 42.774,-129.88 6.433,-13.11 11.886,-26.49 18.476,-39.08 65.34,-124.82 148.621,-237.16 229.676,-344.26 -10.762,-15.45 -21.875,-30.56 -32.723,-45.928 7.715,-12.84 15.887,-24.711 34.844,-27.992 5.821,-1 13.828,-1.758 14.785,-5.801 1.883,-7.981 -13.027,-14.238 -18.484,-17.43 -15.891,-9.301 -33.605,-13.871 -57.551,-13.199 -10.762,0.301 -22.121,1.391 -29.031,6.34 3.492,5.25 9.977,4 14.258,5.801 12,5.078 15.879,22.839 20.054,37.488 0.918,3.211 2.903,8.23 2.629,10.031 -0.507,3.449 -12.922,12.54 -17.929,16.9 -93.118,80.69 -181.043,167.81 -264.012,258.2 -58.945,64.21 -118.457,138.72 -170.023,213.31 -4.833,6.98 -8.36,14.62 -13.18,21.65 -38.535,56.02 -66.203,118.68 -77.629,200.64 -5.859,42.05 -5.813,88.17 0.516,130.42 12.179,81.2 42.394,146.75 79.21,199.06 37.657,53.5 86.856,99.14 144.668,133.57 58.399,34.8 129.012,60.33 215.965,64.43 65.2,3.09 121.242,-7.9 168.965,-24.29 48.11,-16.53 90.598,-38.48 126.192,-66"
         style="fill:#231f20;fill-opacity:1;fill-rule:evenodd;stroke:none"
         id="path16"
         inkscape:connector-curvature="0" /><path
         d="m 1256.12,991.691 c 1.73,-8.679 4.2,-14.5 6.89,-22.703 3.2,-9.867 5.05,-18.668 12.14,-23.238 5.28,-3.398 17.71,-4.039 17.94,-7.379 0.19,-2.883 -9.55,-4.691 -12.66,-5.301 -28.98,-5.519 -55.14,0.629 -73.93,11.629 -5.36,3.141 -20.39,9.36 -18.48,17.43 1.37,5.781 15.5,5.043 22.19,7.383 12.96,4.57 20.08,14.617 27.44,25.879 -11.11,17.049 -23.6,32.709 -34.85,49.629 91.87,121.92 186.27,251.67 254.5,401.29 3.14,6.87 4.79,13.74 7.39,21.11 19.52,55.25 36.84,118.87 33.26,194.31 -6.68,141.64 -62.33,242.79 -133.57,322.62 -35.03,39.22 -80.45,72.86 -128.84,99.26 -49.47,26.97 -107.46,45.13 -173.19,54.39 66.59,48.89 145.22,85.73 254.51,90.81 94.06,4.38 174.27,-18.92 234.43,-50.68 62.63,-33.08 113,-75.58 154.71,-128.84 40.03,-51.11 73.43,-117.45 88.72,-194.83 8.07,-41.05 10.93,-87.71 6.32,-131.48 -9.05,-85.96 -33.8,-152.85 -72.34,-211.2 -18.99,-28.77 -37.12,-57.42 -57.56,-84.48 -121.99,-161.63 -264.43,-304.36 -415.02,-435.609"
         style="fill:#231f20;fill-opacity:1;fill-rule:evenodd;stroke:none"
         id="path18"
         inkscape:connector-curvature="0" /><path
         d="m 1013.25,869.199 c 7.07,-13.847 14.45,-26.219 32.22,-31.16 5.64,-1.559 12.7,-2.508 13.19,-7.391 0.72,-7.367 -14.39,-12.636 -20.58,-15.308 -17.07,-7.34 -39.185,-9.789 -60.736,-5.809 -9.895,1.821 -19.922,3.688 -25.867,9.508 1.738,3.762 6.687,2.723 9.507,3.16 22.754,3.641 23.879,28.371 33.782,45.41 -127.051,138.981 -246.145,288.711 -348.489,455.671 -16.863,27.52 -32.82,56.45 -48.047,86.06 -2.078,4.07 -2.937,7.88 -4.753,12.15 -1.504,3.61 -4.485,7.03 -6.321,10.56 -26.426,50.46 -46.179,111.87 -50.176,183.75 -7.378,133.27 35.93,232.49 91.875,307.83 57.063,76.82 134.524,134.68 236.016,166.32 17.238,5.36 35.07,9.83 53.867,13.19 57.727,10.33 130.832,8.45 186.382,-4.75 110.57,-26.25 190.58,-82.75 252.91,-155.76 40.91,-47.89 73.75,-108.34 92.93,-179.52 9.87,-36.63 14.79,-78.21 14.79,-121.44 0,-42.9 -6.41,-82.97 -16.37,-119.33 -4.93,-17.99 -10.73,-34.85 -16.35,-51.75 -2.66,-7.93 -7.55,-15.53 -11.11,-23.23 -45.46,-98.94 -105.57,-192.76 -165.8,-276.67 -57.39,-80.02 -116.68,-154.96 -179.51,-229.159 -20.7,-24.441 -42.82,-47.652 -63.36,-72.332"
         style="fill:#231f20;fill-opacity:1;fill-rule:evenodd;stroke:none"
         id="path20"
         inkscape:connector-curvature="0" /></g></g></svg>