<?xml version="1.0" encoding="UTF-8" standalone="no"?>
<!-- Created with Inkscape (http://www.inkscape.org/) -->

<svg
   xmlns:dc="http://purl.org/dc/elements/1.1/"
   xmlns:cc="http://creativecommons.org/ns#"
   xmlns:rdf="http://www.w3.org/1999/02/22-rdf-syntax-ns#"
   xmlns:svg="http://www.w3.org/2000/svg"
   xmlns="http://www.w3.org/2000/svg"
   xmlns:sodipodi="http://sodipodi.sourceforge.net/DTD/sodipodi-0.dtd"
   xmlns:inkscape="http://www.inkscape.org/namespaces/inkscape"
   version="1.1"
   id="svg2"
   xml:space="preserve"
   width="258.51999"
   height="333.33334"
   viewBox="0 0 259 265"
   sodipodi:docname="bedkom-square.svg"
   inkscape:version="0.92.2 5c3e80d, 2017-08-06"><metadata
     id="metadata8"><rdf:RDF><cc:Work
         rdf:about=""><dc:format>image/svg+xml</dc:format><dc:type
           rdf:resource="http://purl.org/dc/dcmitype/StillImage" /><dc:title></dc:title></cc:Work></rdf:RDF></metadata><defs
     id="defs6" /><sodipodi:namedview
     pagecolor="#ffffff"
     bordercolor="#666666"
     borderopacity="1"
     objecttolerance="10"
     gridtolerance="10"
     guidetolerance="10"
     inkscape:pageopacity="0"
     inkscape:pageshadow="2"
     inkscape:window-width="640"
     inkscape:window-height="480"
     id="namedview4"
     showgrid="false"
     inkscape:zoom="0.70799998"
     inkscape:cx="129.25999"
     inkscape:cy="166.66667"
     inkscape:window-x="0"
     inkscape:window-y="0"
     inkscape:window-maximized="0"
     inkscape:current-layer="g10" /><g
     id="g10"
     inkscape:groupmode="layer"
     inkscape:label="ink_ext_XXXXXX"
     transform="matrix(1.3333333,0,0,-1.3333333,0,333.33333)"><g
       id="g12"
       transform="scale(0.1)"><path
         d="m 959.254,2492.36 c -67.813,0 -130.566,-9.34 -188.07,-22.95 -57.051,-13.48 -109.496,-32.12 -157,-54.54 -144.106,-67.98 -257.215,-166.06 -343.028,-290.53 -27.996,-40.62 -53.906,-86.84 -75.433,-136.09 -42.555,-97.35 -71.868,-211.3 -71.868,-351.17 0,-67.6 9.969,-130.56 23.45,-187.58 13.554,-57.32 32.015,-108.94 54.535,-156.99 66.926,-142.74 165.949,-258.7 290.019,-343.541 41.543,-28.387 86.657,-53.821 136.09,-75.43 98.266,-42.949 210.797,-71.859 351.188,-71.859 132.733,0 249.433,33.929 345.053,77.48 97.38,44.328 177.86,104.961 247.73,174.81 70.56,70.58 127.75,153.93 171.25,251.28 43.77,97.97 72.64,211.63 71.87,351.18 -0.73,133.7 -33.73,248.83 -77.48,345.08 -44.52,97.95 -103.47,176.36 -174.82,247.71 -70.12,70.12 -152.78,127.46 -251.29,171.26 -71.49,31.79 -155.15,57.13 -249.75,67.28 -31.48,3.38 -69.048,6.13 -101.43,4.6 -0.332,-0.03 -0.676,0 -1.016,0 z m -11.731,7.63 c 14.622,0 29.231,0 43.848,0 0.109,-0.39 0.422,-0.59 1.016,-0.51 154.013,-3.89 281.123,-40.18 389.923,-91.74 163.77,-77.61 290.59,-189.89 389.41,-332.84 32.85,-47.51 62.28,-99.86 86.13,-154.94 49.12,-113.44 81.06,-242.19 81.05,-401.14 -0.01,-77.65 -11.12,-149.01 -26.51,-214.07 C 1866.61,1111.07 1771,961.012 1651.94,841.941 1571.48,761.48 1477.33,695.859 1366.5,645.699 1256.21,595.801 1125.05,561.102 968.941,561.102 c -156.097,0 -286.777,35.179 -397.062,84.597 C 460.824,695.5 366.941,761.949 286.449,842.461 206.973,921.941 138.27,1015.13 88.1719,1125.85 63.3086,1180.8 41.6055,1239.81 26.5039,1305.25 11.4219,1370.61 0,1441.72 0,1519.84 c 0,158.05 31.7031,287.67 81.5508,400.12 49.2772,111.13 114.3902,208.18 194.2032,287.97 80.687,80.71 172.012,148.91 281.348,200.31 109.019,51.27 236.261,87.07 390.421,91.75"
         style="fill:#231f20;fill-opacity:1;fill-rule:evenodd;stroke:none"
         id="path14"
         inkscape:connector-curvature="0" /><path
         d="m 956.93,2041.72 c -53.594,36.65 -110.586,74.74 -165.785,111.81 -12.235,8.22 -26.168,15.49 -32.782,28.91 -5.527,11.24 -2.523,27.01 3.864,34.71 6.937,8.37 22.886,14.41 34.691,19.27 38.867,16.04 85.355,24.1 136.387,26.51 41.847,1.98 80.895,-2.77 120.025,-7.71 26.27,-3.31 54.99,-8.41 80.95,-14.94 8.8,-2.21 18.47,-4.73 21.69,-10.12 2.53,-4.24 4.44,-18.02 3.37,-25.54 -0.81,-5.73 -7.33,-14.11 -11.57,-19.28 -9.82,-12.01 -18.85,-21.16 -29.86,-31.33 -5.41,-4.99 -9.76,-10.94 -14.96,-15.42 -10.5,-9.05 -23.92,-16.28 -36.14,-24.58 -35.69,-24.23 -73.681,-49.12 -109.88,-72.29"
         style="fill:#231f20;fill-opacity:1;fill-rule:evenodd;stroke:none"
         id="path16"
         inkscape:connector-curvature="0" /><path
         d="m 843.668,1587.73 c 4.707,13.7 1.449,35.42 1.449,54.95 0,30.61 1.278,61.21 1.934,92.52 0.308,15.25 -0.446,31.51 2.402,44.82 2.883,13.53 9.973,26.7 14.942,38.07 13.589,31.14 26.695,59.06 41.441,90.61 2.547,5.43 8.027,13.55 8.203,17.83 0.223,5.61 -7.324,16.17 -10.117,21.21 -2.824,5.08 -7.922,17.15 -13.02,17.83 -5.812,0.79 -13.422,-7.18 -17.351,-10.6 -13.18,-11.46 -23.434,-21.97 -35.184,-34.71 -1.902,-2.05 -4.543,-5.53 -7.707,-5.29 0.32,3.55 3.32,6.45 5.301,9.16 14.852,20.32 29.824,41.39 46.266,61.21 15.687,18.91 35.992,35.06 62.171,45.79 3.848,1.55 8.457,3.75 11.094,3.84 4.551,0.17 10.832,-3.83 15.422,-5.78 13.836,-5.91 30.976,-12.8 41.916,-20.73 9.13,-6.6 17.27,-19.33 25.07,-29.87 21.01,-28.45 43.46,-60.81 62.16,-90.12 -4.64,0.05 -6.57,5.19 -9.15,8.2 -16.51,19.16 -32.5,38 -49.64,58.3 -2.54,3.01 -6.76,7.9 -9.64,8.19 -5,0.51 -10.91,-5.62 -14.45,-9.16 -8.85,-8.75 -14.22,-15.52 -21.688,-25.54 -2.754,-3.67 -8.633,-10.26 -9.16,-13.98 -0.684,-4.73 2.246,-12.18 3.859,-19.28 4.2,-18.66 11.249,-35.65 18.789,-49.63 11.18,-20.72 23.97,-37.84 34.22,-57.35 18.26,-34.78 28.53,-84.17 44.02,-122.8 2.3,-5.74 3.87,-11.68 4.61,-16.22 2.31,-13.81 5.53,-17.07 7.28,-29.18 9.49,38.2 18.76,78.22 27.46,119.03 8.54,40.03 18.65,80.34 25.07,121.47 6.64,42.59 13.8,84.29 21.2,125.3 7.27,40.33 22.85,77.74 30.36,116.15 0.06,0.3 0,0.66 0,0.96 0.32,16.28 -7.49,30.21 -8.19,44.81 4.93,-2.38 7.75,-7.46 10.6,-11.55 3,-4.31 5.78,-8.97 8.67,-13.5 5.31,-8.29 12.96,-17.87 15.42,-28.44 1.15,-4.91 -0.33,-11.47 2.41,-15.42 3.71,-5.32 22.29,-7.78 30.85,-11.09 10.61,-4.09 19.28,-9.72 27,-14.93 17.32,-11.72 38.33,-19.72 57.35,-26.51 20.53,-7.31 42.67,-13.4 64.57,-19.28 11.25,-3.03 22.64,-4.89 32.77,-9.15 88.4,-37.19 179.52,-74.46 266.04,-110.36 9.65,-29.77 16.4,-59.69 23.13,-91.09 3.37,-15.73 7.36,-31.84 9.16,-48.2 1.88,-17.03 1.93,-34.37 4.34,-52.53 2.34,-17.62 4.4,-35.19 3.37,-53.01 -1.06,-18.01 -2.89,-35.56 -2.89,-53.99 -0.01,-17.39 -3.45,-34.47 -5.78,-51.56 -2.35,-17.09 -4.31,-33.88 -7.72,-49.15 -14.13,-63.49 -31.82,-119.98 -55.91,-172.54 -23.82,-52.03 -52.76,-99.75 -85.3,-143.14 -98.5,-131.39 -230.5,-223.159 -405.8,-279.53 -28.33,-9.122 -61.31,-14.5 -94.45,-19.758 -33.46,-5.313 -68.37,-10.614 -103.617,-10.614 -74.746,0 -145.235,6.551 -205.789,22.661 -240.43,63.992 -406.266,202.061 -508.454,405.311 -25.542,50.81 -48.222,106.17 -62.652,165.79 -7.332,30.27 -11.68,63.11 -17.351,96.88 -2.899,17.26 -3.09,35.37 -3.372,53.97 -0.128,8.74 -1.527,17.4 -2.406,26.03 -2.82,27.44 2.028,52.53 4.336,79.51 1.516,17.74 2.078,35.54 5.305,51.56 6.476,32.34 12.465,63.83 20.723,93.04 74.867,38.36 155.281,72.56 238.074,106.49 38.562,15.8 79.41,34.95 120.484,52.05 10.453,4.36 20.359,8.31 29.875,13.5 22.895,12.5 45.234,24.54 69.406,38.08 4.969,2.78 12.457,6.11 13.977,8.67 3.133,5.26 4.832,12.7 7.226,19.27 4.68,12.86 9.61,24.82 15.422,37.12 3.141,6.63 6,13.68 10.606,17.83 0.316,0 0.644,0 0.969,0 -2.735,-13.52 -5.676,-25.02 -4.821,-37.59 0.782,-11.6 5.785,-23.28 9.153,-34.22 3.347,-10.89 6.867,-22.1 10.121,-33.26 3.281,-11.25 7.093,-22.33 9.636,-33.25 5.622,-24.1 8.614,-49.22 12.536,-73.73 3.91,-24.52 7.933,-49.13 12.046,-74.22 7.743,-47.3 22.836,-92.91 33.747,-139.29 8.191,-34.91 17.214,-68.86 26.011,-103.62 2.832,-11.21 7.512,-21.9 9.637,-33.25"
         style="fill:#231f20;fill-opacity:1;fill-rule:evenodd;stroke:none"
         id="path18"
         inkscape:connector-curvature="0" /></g></g></svg>