<svg xmlns="http://www.w3.org/2000/svg" width="258.52" height="333.333" viewBox="0 0 259 265"><g fill="#231f20" fill-rule="evenodd"><path d="M127.9 1.019c-9.041 0-17.408 1.245-25.075 3.06-7.607 1.797-14.6 4.282-20.934 7.272-19.214 9.064-34.295 22.141-45.737 38.737-3.733 5.416-7.187 11.579-10.058 18.145-5.674 12.98-9.582 28.174-9.582 46.823 0 9.013 1.33 17.408 3.127 25.01 1.807 7.643 4.268 14.526 7.271 20.933 8.923 19.032 22.127 34.493 38.67 45.805a110.534 110.534 0 0 0 18.145 10.057c13.102 5.727 28.106 9.582 46.825 9.582 17.697 0 33.257-4.524 46.007-10.331 12.984-5.91 23.714-13.995 33.03-23.308 9.408-9.41 17.034-20.524 22.834-33.504 5.836-13.063 9.685-28.217 9.582-46.824-.097-17.827-4.497-33.177-10.33-46.01-5.936-13.06-13.796-23.515-23.31-33.029-9.349-9.349-20.37-16.994-33.505-22.834a110.926 110.926 0 0 0-33.3-8.971c-4.197-.45-9.206-.817-13.524-.613-.044.004-.09 0-.135 0zM126.337 0h5.847c.014.052.056.079.135.068 20.535.519 37.483 5.358 51.99 12.232 21.836 10.348 38.745 25.319 51.921 44.379a121.26 121.26 0 0 1 11.484 20.659c6.55 15.125 10.808 32.292 10.807 53.485-.001 10.353-1.483 19.868-3.535 28.543-6.104 25.824-18.852 45.831-34.726 61.708-10.728 10.728-23.282 19.477-38.059 26.165-14.705 6.653-32.193 11.28-53.008 11.28-20.813 0-38.237-4.69-52.941-11.28-14.808-6.64-27.326-15.5-38.058-26.235-10.597-10.597-19.757-23.022-26.437-37.785-3.315-7.327-6.209-15.195-8.222-23.92C1.523 150.585 0 141.104 0 130.688c0-21.073 4.227-38.356 10.873-53.35 6.57-14.817 15.252-27.757 25.894-38.395C47.525 28.18 59.702 19.088 74.28 12.235 88.816 5.399 105.782.625 126.336 0"/><path d="M127.59 61.104c-7.145-4.887-14.744-9.965-22.104-14.908-1.631-1.096-3.49-2.065-4.37-3.855-.738-1.498-.337-3.601.514-4.628.925-1.116 3.052-1.921 4.626-2.569 5.182-2.139 11.38-3.213 18.185-3.535 5.58-.264 10.786.37 16.003 1.028 3.503.442 7.332 1.122 10.793 1.992 1.174.295 2.463.631 2.892 1.35.338.565.592 2.402.45 3.405-.108.764-.978 1.881-1.543 2.57-1.31 1.602-2.513 2.822-3.981 4.178-.722.665-1.302 1.459-1.995 2.056-1.4 1.207-3.19 2.17-4.819 3.277a659.83 659.83 0 0 1-14.65 9.639"/><path d="M112.49 121.636c.627-1.827.192-4.723.192-7.327 0-4.081.17-8.161.258-12.336.041-2.033-.06-4.201.32-5.976.385-1.804 1.33-3.56 1.993-5.076 1.812-4.152 3.559-7.874 5.525-12.081.34-.724 1.07-1.807 1.094-2.377.03-.748-.977-2.156-1.35-2.828-.376-.678-1.055-2.287-1.735-2.378-.775-.105-1.79.958-2.314 1.414-1.757 1.528-3.124 2.929-4.69 4.628-.254.273-.606.737-1.028.705.042-.473.442-.86.706-1.221 1.98-2.71 3.977-5.519 6.17-8.162 2.09-2.521 4.798-4.674 8.289-6.105.513-.207 1.127-.5 1.479-.512.607-.023 1.444.51 2.056.77 1.845.789 4.13 1.707 5.589 2.765 1.217.88 2.303 2.577 3.343 3.982 2.801 3.794 5.794 8.108 8.288 12.016-.619-.006-.876-.692-1.22-1.093a1004.482 1004.482 0 0 1-6.619-7.773c-.339-.402-.901-1.054-1.285-1.092-.667-.068-1.455.749-1.927 1.221-1.18 1.167-1.896 2.07-2.892 3.405-.367.49-1.15 1.368-1.221 1.864-.091.631.3 1.624.514 2.571.56 2.488 1.5 4.753 2.506 6.617 1.49 2.763 3.196 5.046 4.562 7.647 2.435 4.637 3.804 11.223 5.87 16.373.306.766.516 1.558.614 2.163.308 1.841.738 2.276.971 3.89a488.845 488.845 0 0 0 3.661-15.87c1.139-5.337 2.487-10.712 3.343-16.196a708.57 708.57 0 0 1 2.827-16.707c.969-5.377 3.046-10.365 4.048-15.486.008-.04 0-.088 0-.128.042-2.171-.999-4.028-1.092-5.975.657.317 1.033.995 1.413 1.54.4.575.77 1.196 1.156 1.8.708 1.105 1.728 2.383 2.056 3.792.153.655-.044 1.53.321 2.056.495.71 2.972 1.037 4.114 1.479 1.414.545 2.57 1.296 3.6 1.99 2.309 1.563 5.11 2.63 7.646 3.535 2.738.975 5.69 1.787 8.61 2.57 1.5.405 3.018.653 4.369 1.22 11.787 4.96 23.936 9.929 35.472 14.715 1.287 3.97 2.187 7.959 3.084 12.146.45 2.097.981 4.245 1.221 6.426.251 2.271.258 4.583.579 7.004.312 2.35.587 4.692.45 7.068-.142 2.402-.386 4.742-.386 7.199-.001 2.319-.46 4.596-.77 6.875-.314 2.278-.575 4.517-1.03 6.553-1.884 8.465-4.243 15.997-7.455 23.005a103.858 103.858 0 0 1-11.373 19.086c-13.133 17.518-30.733 29.754-54.107 37.27-3.777 1.217-8.174 1.934-12.593 2.635-4.461.708-9.116 1.415-13.816 1.415-9.966 0-19.364-.874-27.438-3.022-32.057-8.532-54.169-26.941-67.794-54.041-3.406-6.775-6.43-14.156-8.354-22.105-.977-4.036-1.557-8.415-2.313-12.918-.387-2.301-.412-4.716-.45-7.196-.017-1.165-.203-2.32-.32-3.47-.376-3.659.27-7.004.578-10.602.202-2.365.277-4.738.707-6.874.863-4.312 1.662-8.511 2.763-12.406C39.257 80.6 49.98 76.04 61.018 71.515c5.142-2.107 10.588-4.66 16.065-6.94 1.394-.582 2.714-1.108 3.983-1.8 3.053-1.667 6.031-3.272 9.254-5.078.663-.37 1.661-.814 1.864-1.156.418-.701.644-1.693.963-2.569a57.014 57.014 0 0 1 2.057-4.95c.418-.883.8-1.823 1.414-2.377h.129c-.365 1.803-.757 3.336-.643 5.012.104 1.547.771 3.104 1.22 4.563.447 1.452.916 2.947 1.35 4.435.437 1.5.946 2.977 1.285 4.433.75 3.213 1.148 6.563 1.671 9.83.522 3.27 1.058 6.551 1.606 9.897 1.033 6.306 3.045 12.388 4.5 18.572 1.092 4.654 2.295 9.181 3.468 13.816.378 1.494 1.002 2.92 1.285 4.433"/></g></svg>