<?xml version="1.0" encoding="UTF-8" standalone="no"?>
<!-- Created with Inkscape (http://www.inkscape.org/) -->

<svg
   xmlns:dc="http://purl.org/dc/elements/1.1/"
   xmlns:cc="http://creativecommons.org/ns#"
   xmlns:rdf="http://www.w3.org/1999/02/22-rdf-syntax-ns#"
   xmlns:svg="http://www.w3.org/2000/svg"
   xmlns="http://www.w3.org/2000/svg"
   xmlns:sodipodi="http://sodipodi.sourceforge.net/DTD/sodipodi-0.dtd"
   xmlns:inkscape="http://www.inkscape.org/namespaces/inkscape"
   version="1.1"
   id="svg2"
   xml:space="preserve"
   width="254.78667"
   height="327.84"
   viewBox="0 0 260 255"
   sodipodi:docname="dotkom-square.svg"
   inkscape:version="0.92.2 5c3e80d, 2017-08-06"><metadata
     id="metadata8"><rdf:RDF><cc:Work
         rdf:about=""><dc:format>image/svg+xml</dc:format><dc:type
           rdf:resource="http://purl.org/dc/dcmitype/StillImage" /><dc:title></dc:title></cc:Work></rdf:RDF></metadata><defs
     id="defs6" /><sodipodi:namedview
     pagecolor="#ffffff"
     bordercolor="#666666"
     borderopacity="1"
     objecttolerance="10"
     gridtolerance="10"
     guidetolerance="10"
     inkscape:pageopacity="0"
     inkscape:pageshadow="2"
     inkscape:window-width="640"
     inkscape:window-height="480"
     id="namedview4"
     showgrid="false"
     inkscape:zoom="0.71986336"
     inkscape:cx="127.39333"
     inkscape:cy="163.92"
     inkscape:window-x="0"
     inkscape:window-y="0"
     inkscape:window-maximized="0"
     inkscape:current-layer="g10" /><g
     id="g10"
     inkscape:groupmode="layer"
     inkscape:label="ink_ext_XXXXXX"
     transform="matrix(1.3333333,0,0,-1.3333333,0,327.84)"><g
       id="g12"
       transform="scale(0.1)"><path
         d="m 945.406,2451.21 c -66.836,0 -128.676,-9.2 -185.363,-22.6 -56.215,-13.29 -107.902,-31.66 -154.727,-53.75 -142.023,-67 -253.5,-163.67 -338.066,-286.34 -27.605,-40.03 -53.141,-85.59 -74.355,-134.12 -41.938,-95.96 -70.825,-208.26 -70.825,-346.11 0,-66.61 9.825,-128.66 23.106,-184.87 13.359,-56.51 31.554,-107.37 53.754,-154.72 65.957,-140.69 163.554,-254.97 285.832,-338.571 40.953,-28.008 85.398,-53.051 134.125,-74.348 96.855,-42.34 207.754,-70.832 346.113,-70.832 130.83,0 245.83,33.442 340.08,76.352 95.97,43.699 175.29,103.461 244.14,172.299 69.55,69.55 125.92,151.71 168.8,247.66 43.13,96.54 71.58,208.55 70.82,346.11 -0.72,131.77 -33.24,245.23 -76.36,340.09 -43.88,96.54 -101.98,173.81 -172.3,244.14 -69.11,69.1 -150.58,125.62 -247.66,168.78 -70.46,31.34 -152.91,56.3 -246.14,66.32 -31.03,3.32 -68.064,6.04 -99.97,4.51 -0.332,-0.01 -0.668,0 -1.004,0 z m -11.551,7.54 c 14.399,0 28.801,0 43.196,0 0.117,-0.39 0.426,-0.59 1.008,-0.5 151.801,-3.84 277.071,-39.61 384.291,-90.43 161.41,-76.49 286.4,-187.14 383.79,-328.02 32.37,-46.83 61.38,-98.41 84.9,-152.71 48.4,-111.8 79.88,-238.7 79.87,-395.35 -0.01,-76.53 -10.96,-146.86 -26.12,-210.98 C 1839.66,1089.88 1745.43,941.98 1628.1,824.629 1548.8,745.34 1456.01,680.648 1346.78,631.23 1238.07,582.039 1108.81,547.84 954.957,547.84 801.105,547.84 672.32,582.512 563.629,631.23 454.172,680.301 361.645,745.809 282.313,825.141 203.984,903.469 136.277,995.309 86.9063,1104.44 62.4023,1158.6 41,1216.76 26.1211,1281.26 11.2539,1345.67 0,1415.75 0,1492.75 c 0,155.77 31.25,283.5 80.3711,394.34 48.5669,109.54 112.7419,205.17 191.3989,283.82 79.531,79.53 169.539,146.74 277.289,197.42 107.457,50.53 232.851,85.8 384.796,90.42"
         style="fill:#231f20;fill-opacity:1;fill-rule:evenodd;stroke:none"
         id="path14"
         inkscape:connector-curvature="0" /><path
         d="m 591.059,1282.25 c -0.704,3.98 -4.063,10.82 -7.645,12.15 -5.086,1.89 -15.207,0.45 -22.496,0.45 -16.77,0 -30.023,0 -45.891,0 -7.937,0 -17.172,1.42 -22.949,0 -13.312,-3.28 -10.922,-45.14 0,-48.14 5.848,-1.6 15.012,0 22.5,0 23.746,0 46.891,0 68.836,0 7.488,5.56 9.984,22.41 7.645,35.54 z m -1.34,637.96 c -5.563,-23.75 -2.707,-58.32 -2.707,-85.93 0,-117.99 0,-235.97 0,-354.52 0,-30.22 -1.477,-61.94 5.855,-82.78 11.035,-31.43 35.86,-55.05 68.379,-64.34 12.149,-3.47 23.992,-4.5 40.043,-4.5 174.977,0 356.031,-1.84 531.791,0 26.29,0.28 47.96,11.38 63.43,24.75 15.86,13.71 28.58,32.08 33.74,54.89 5.56,24.54 2.7,56.68 2.7,85.93 0,118.14 0.01,234.86 0,354.52 0,31.07 1.23,62.22 -5.85,82.78 -7.4,21.51 -20.8,37.54 -38.24,50.39 -17.74,13.08 -39.68,19.35 -69.28,19.35 -145.96,0 -297.17,0 -443.154,0 -28.969,0 -61.613,1.45 -89.086,-0.45 -50.91,-3.53 -86.926,-34.32 -97.621,-80.09 z m -47.246,242.51 c -0.086,0.38 0.172,0.42 0.453,0.44 275.035,0 548.544,0 822.424,0 10.39,0 20.21,-1.56 29.24,-3.6 52.46,-11.81 88.38,-42.53 107.53,-89.53 6.19,-15.19 11.69,-33.4 11.69,-54.43 0,-219.69 0,-438.01 0,-657.31 0,-22.18 0.78,-43.56 -1.79,-63.89 -4.74,-37.33 -22.24,-65.42 -44.1,-87.28 -10.4,-10.41 -23.7,-19.56 -38.69,-27 -14.67,-7.27 -33.49,-13.26 -51.74,-13.94 -43.23,-1.62 -87.27,-0.45 -131.37,-0.45 -217.76,-0.02 -439.96,0.02 -657.761,0 -23.828,-0.01 -44.586,-0.56 -62.535,3.15 -18.48,3.82 -32.969,9.86 -47.238,18.44 -26.77,16.11 -48.191,38.48 -61.188,70.18 -6.003,14.63 -11.246,34.03 -11.246,54.89 0,234.88 0,471.75 0,706.81 0,4.9 1.231,9.4 1.801,14.39 4.445,39.43 23.152,66.34 44.09,87.29 19.258,19.25 43.809,33.22 76.027,39.13 4.481,0.83 10.414,1.22 14.403,2.71"
         style="fill:#231f20;fill-opacity:1;fill-rule:evenodd;stroke:none"
         id="path16"
         inkscape:connector-curvature="0" /><path
         d="m 825.461,1841.93 c -0.293,-10.05 0.59,-21.29 -0.445,-30.59 -5.52,-4.43 -12.239,-7.26 -18.453,-10.35 -31.098,-15.47 -63.086,-31.68 -94.926,-47.24 -12.684,-6.2 -24.992,-13.39 -38.242,-18.45 0.296,10.8 -0.602,22.8 0.453,32.85 4.148,3.29 9.242,5.76 13.945,8.1 33.492,16.68 68.691,33.3 102.125,50.39 -38.102,19.93 -77.922,38.15 -116.523,57.58 0,11.4 0,22.8 0,34.2 51.476,-24.71 101.808,-50.56 152.066,-76.49"
         style="fill:#231f20;fill-opacity:1;fill-rule:evenodd;stroke:none"
         id="path18"
         inkscape:connector-curvature="0" /><path
         d="m 857.852,1707.86 c 65.839,0 131.668,0 197.508,0 1.03,-10.66 0.16,-23.23 0.46,-34.64 -65.246,-0.76 -133.629,-0.76 -198.863,0 0,11.1 0,22.19 0,33.29 -0.023,0.77 0.34,1.17 0.895,1.35"
         style="fill:#231f20;fill-opacity:1;fill-rule:evenodd;stroke:none"
         id="path20"
         inkscape:connector-curvature="0" /><path
         d="m 1221.69,1309.39 c 4.32,2.99 9.68,3.87 14.07,5.02 55.14,14.56 98.85,47.38 117.55,98.96 1.83,5.08 3.05,9.93 5.69,15.52 0.43,0.09 1.81,3.38 1.84,3.08 2.02,-40.23 -12.55,-71.12 -32.65,-91.43 -24.19,-24.45 -60.46,-39.66 -106.5,-31.15"
         style="fill:#231f20;fill-opacity:1;fill-rule:evenodd;stroke:none"
         id="path22"
         inkscape:connector-curvature="0" /><path
         d="m 470.938,1148.63 c 17.894,2.48 42.085,0.46 62.089,0.46 224.965,-0.01 448.871,0 675.303,0 66.59,0 144.68,0 214.6,0 10.84,0 21.45,1.08 29.7,-0.91 12.07,-2.91 21.33,-13.45 21.59,-27.44 0.24,-12.93 -7.92,-25.41 -20.25,-28.8 -7.59,-2.08 -19.1,-0.9 -30.14,-0.9 -309.91,0.01 -617.9,-0.01 -929.494,0 -11.25,0 -21.57,-0.71 -28.801,1.81 -25.851,8.98 -23.754,51.74 5.403,55.78"
         style="fill:#231f20;fill-opacity:1;fill-rule:evenodd;stroke:none"
         id="path24"
         inkscape:connector-curvature="0" /></g></g></svg>