<?xml version="1.0" encoding="UTF-8" standalone="no"?>
<!-- Created with Inkscape (http://www.inkscape.org/) -->

<svg
   xmlns:dc="http://purl.org/dc/elements/1.1/"
   xmlns:cc="http://creativecommons.org/ns#"
   xmlns:rdf="http://www.w3.org/1999/02/22-rdf-syntax-ns#"
   xmlns:svg="http://www.w3.org/2000/svg"
   xmlns="http://www.w3.org/2000/svg"
   xmlns:sodipodi="http://sodipodi.sourceforge.net/DTD/sodipodi-0.dtd"
   xmlns:inkscape="http://www.inkscape.org/namespaces/inkscape"
   version="1.1"
   id="svg2"
   xml:space="preserve"
   width="240.14667"
   height="302.46667"
   viewBox="0 0 245 245"
   sodipodi:docname="fagkom-square.svg"
   inkscape:version="0.92.2 5c3e80d, 2017-08-06"><metadata
     id="metadata8"><rdf:RDF><cc:Work
         rdf:about=""><dc:format>image/svg+xml</dc:format><dc:type
           rdf:resource="http://purl.org/dc/dcmitype/StillImage" /><dc:title></dc:title></cc:Work></rdf:RDF></metadata><defs
     id="defs6" /><sodipodi:namedview
     pagecolor="#ffffff"
     bordercolor="#666666"
     borderopacity="1"
     objecttolerance="10"
     gridtolerance="10"
     guidetolerance="10"
     inkscape:pageopacity="0"
     inkscape:pageshadow="2"
     inkscape:window-width="640"
     inkscape:window-height="480"
     id="namedview4"
     showgrid="false"
     inkscape:zoom="0.78025125"
     inkscape:cx="120.07333"
     inkscape:cy="151.23334"
     inkscape:window-x="0"
     inkscape:window-y="0"
     inkscape:window-maximized="0"
     inkscape:current-layer="g10" /><g
     id="g10"
     inkscape:groupmode="layer"
     inkscape:label="ink_ext_XXXXXX"
     transform="matrix(1.3333333,0,0,-1.3333333,0,302.46667)"><g
       id="g12"
       transform="scale(0.1)"><path
         d="m 891.063,2261.38 c -62.993,0 -121.282,-8.68 -174.7,-21.32 -52.996,-12.52 -101.707,-29.84 -145.832,-50.65 -133.867,-63.14 -238.933,-154.26 -318.644,-269.87 -26.012,-37.74 -50.074,-80.67 -70.071,-126.42 -39.535,-90.44 -66.761,-196.29 -66.761,-326.22 0,-62.78 9.258,-121.27 21.777,-174.24 12.594,-53.26 29.746,-101.2 50.664,-145.83 62.168,-132.6 154.152,-240.318 269.399,-319.111 38.601,-26.387 80.5,-50 126.421,-70.078 91.289,-39.903 195.817,-66.762 326.215,-66.762 123.309,0 231.709,31.519 320.539,71.973 90.45,41.187 165.21,97.507 230.11,162.398 65.54,65.551 118.68,142.99 159.08,233.43 40.66,90.99 67.47,196.56 66.76,326.21 -0.68,124.18 -31.33,231.13 -71.97,320.53 -41.35,91.01 -96.12,163.84 -162.39,230.12 -65.15,65.13 -141.93,118.39 -233.43,159.08 -66.41,29.54 -144.12,53.07 -231.992,62.49 -29.246,3.15 -64.148,5.69 -94.218,4.27 -0.321,-0.01 -0.641,0 -0.957,0 z m -10.875,7.1 c 13.562,0 27.136,0 40.703,0 0.117,-0.37 0.41,-0.56 0.957,-0.47 143.062,-3.61 261.142,-37.34 362.192,-85.23 152.14,-72.09 269.94,-176.39 361.74,-309.17 30.51,-44.13 57.86,-92.76 80.02,-143.94 45.61,-105.37 75.28,-224.96 75.27,-372.62 0,-72.13 -10.33,-138.42 -24.61,-198.85 C 1733.92,978.289 1645.12,838.891 1534.51,728.289 1459.78,653.559 1372.32,592.59 1269.38,546 1166.9,499.641 1045.09,467.41 900.066,467.41 755.063,467.41 633.676,500.09 531.234,546 428.066,592.238 340.859,653.988 266.094,728.762 192.262,802.602 128.445,889.16 81.9102,992.012 58.8203,1043.06 38.6523,1097.88 24.625,1158.68 10.6094,1219.38 0,1285.43 0,1358 c 0,146.81 29.4492,267.22 75.7578,371.67 45.7692,103.25 106.2622,193.38 180.3872,267.52 74.96,74.95 159.796,138.31 261.355,186.07 101.277,47.62 219.469,80.87 362.688,85.22"
         style="fill:#231f20;fill-opacity:1;fill-rule:evenodd;stroke:none"
         id="path14"
         inkscape:connector-curvature="0" /><path
         d="m 1057.26,1879.29 c 1.74,-1.47 2.79,-2.07 4.25,-3.79 1.25,-1.45 1.57,-3.76 3.32,-4.26 4.26,-1.21 6.65,4.41 11.36,5.21 44.95,-13.11 91.28,-22.76 136.84,-35.04 22.74,-6.12 45.66,-12.19 68.65,-17.52 22.83,-5.29 45.42,-11.98 68.18,-17.51 45.28,-11.04 91.18,-23.25 136.83,-35.04 22.86,-5.91 46.72,-10.24 70.07,-16.1 11.46,-2.87 23.42,-5.65 35.04,-8.05 10.84,-2.23 22.65,-4.12 31.25,-11.36 -136.9,-51.08 -272.27,-104 -407.66,-157.19 -135.46,-53.23 -272.238,-103.43 -409.546,-155.3 -48.664,12.75 -95.422,29.41 -142.043,45.45 -46.403,15.98 -92.446,32.15 -138.723,48.3 -46.426,16.2 -93,31.86 -139.668,47.82 -23.269,7.95 -46.672,15.41 -69.605,24.14 -11.364,4.33 -22.692,8.54 -34.09,12.78 -11.211,4.19 -22.031,10.4 -34.086,12.31 -5.367,3.17 -11.246,5.81 -18.938,6.64 132.598,46.44 270.481,87.94 408.598,130.2 68.547,20.97 137.121,43.15 205.957,63.45 34.613,10.2 69.496,20.19 103.695,31.25 34.094,11.01 67.639,23.62 101.789,32.66 1.1,0.3 5.85,1.71 8.53,0.95"
         style="fill:#231f20;fill-opacity:1;fill-rule:evenodd;stroke:none"
         id="path16"
         inkscape:connector-curvature="0" /><path
         d="m 1604.11,1721.63 c 1.99,-2.59 0.07,-9.67 0,-14.68 -0.28,-18.57 0.95,-41.66 0.95,-65.34 0,-11.19 -0.48,-22.73 0,-34.1 0.63,-15 3.75,-34.93 -7.11,-39.3 -0.77,50.21 -0.81,101.15 -1.42,151.52 1.8,1.06 5.57,2.62 7.58,1.9"
         style="fill:#231f20;fill-opacity:1;fill-rule:evenodd;stroke:none"
         id="path18"
         inkscape:connector-curvature="0" /><path
         d="m 1589.43,1708.84 c 1.68,-1.64 -2.95,-4.85 -3.32,-7.58 1.56,-1.76 4.74,-1.9 6.64,-3.31 -31.02,-12.38 -62.54,-24.27 -93.75,-36.46 29.55,16.37 60.65,31.21 90.43,47.35"
         style="fill:#231f20;fill-opacity:1;fill-rule:evenodd;stroke:none"
         id="path20"
         inkscape:connector-curvature="0" /><path
         d="m 233.891,1613.67 c 0.269,-1.23 -1.567,-2.08 -2.368,-3.31 -5.378,-8.32 -7.074,-29.77 -4.73,-43.56 1.777,-10.42 2.762,-21.69 4.262,-32.67 4.199,-30.72 10.023,-65.59 21.308,-89.01 -7.504,1.26 -17.097,2.76 -20.367,8.99 -2.129,4.09 -3.348,11.03 -5.203,17.05 -1.766,5.72 -3.309,11.93 -4.738,17.52 -4.028,15.78 -7.489,31.57 -6.625,50.66 1.242,27.4 -5.078,55.04 3.789,74.8 4.312,3.24 9.574,0.57 14.672,-0.47"
         style="fill:#231f20;fill-opacity:1;fill-rule:evenodd;stroke:none"
         id="path22"
         inkscape:connector-curvature="0" /><path
         d="m 1633.95,1396.82 c -15.43,-2.41 -33.54,-2.13 -48.77,-4.73 -75.08,-5.71 -148.25,-16.16 -221.59,-23.67 -73.38,-7.52 -146.1,-17.42 -220.16,-24.62 126.34,51.06 249.27,105.53 373.09,159.08 0.81,-0.1 1.22,0.81 1.43,0 39.88,-33.81 84.27,-65.66 116,-106.06"
         style="fill:#231f20;fill-opacity:1;fill-rule:evenodd;stroke:none"
         id="path24"
         inkscape:connector-curvature="0" /><path
         d="m 806.316,1416.23 c -5.675,-26.13 -11.382,-58.43 -10.886,-90.89 0.492,-32.38 7.289,-61.5 20.832,-80.02 -3,0 -6.004,0 -8.996,0 -20.618,25.86 -21.703,83.12 -16.098,128.79 0.883,7.2 2.035,14.39 3.309,21.77 1.066,6.13 1.789,17.94 4.269,20.83 0.418,0.5 -0.43,1.35 0.469,1.42 2.422,0.19 3.945,-2.6 7.101,-1.9"
         style="fill:#231f20;fill-opacity:1;fill-rule:evenodd;stroke:none"
         id="path26"
         inkscape:connector-curvature="0" /><path
         d="m 316.746,1403.46 c 6.402,-2.92 13.098,-5.54 19.895,-8.06 3,-10.63 9.089,-19.69 13.726,-29.35 13.973,-29.13 27.348,-55.53 40.723,-81.44 9.469,-18.36 17.953,-37.91 27.461,-56.81 7.07,-14.08 14.652,-27.71 21.781,-42.14 2.266,-4.6 3.535,-10.1 7.566,-13.73 86.032,10.07 176.653,21.96 265.618,31.72 21.578,2.37 44.234,5.81 66.285,8.05 7.422,0.75 15.367,3.13 21.781,2.84 3.856,-0.17 7.231,-2.44 10.895,-2.84 7.832,-0.85 14.886,0.25 19.414,3.79 65.113,6.72 131.089,16.33 197.439,22.72 65.43,6.31 130.8,16.53 196.48,23.2 64.69,6.58 130.38,16.17 196.96,23.2 31.22,3.3 64.07,7.32 98.01,11.84 27.05,3.6 57.14,6.29 85.69,10.42 9.9,1.42 15.52,-0.62 14.21,11.36 3.77,-2.57 6.27,-5.49 10.41,-9 2.52,-2.13 9.91,-5.59 9.95,-8.99 0.05,-5.36 -11.55,-5.22 -15.62,-5.69 -43.8,-4.98 -89.29,-12.75 -131.14,-17.04 -52.15,-5.34 -100.8,-14.2 -150.1,-19.41 -50.53,-5.34 -100.22,-13.23 -150.09,-19.41 -250.469,-31.04 -505.195,-63.06 -753.285,-93.75 -41.961,87.73 -83.559,171.94 -124.059,258.52"
         style="fill:#231f20;fill-opacity:1;fill-rule:evenodd;stroke:none"
         id="path28"
         inkscape:connector-curvature="0" /><path
         d="m 1618.79,1390.2 c -0.89,-21.37 -0.02,-48.59 -9,-63.45 -1.49,20.74 0.84,41.79 1.42,62.03 1.79,1.21 5.47,0.54 7.58,1.42"
         style="fill:#231f20;fill-opacity:1;fill-rule:evenodd;stroke:none"
         id="path30"
         inkscape:connector-curvature="0" /><path
         d="m 366.465,1383.09 c 85.582,-37.82 175.762,-71.07 265.144,-105.1 -64.402,-7.73 -129.589,-14.67 -195.07,-21.32 -6.269,10.2 -11.555,21.07 -17.043,31.74 -5.508,10.68 -11.637,20.8 -17.523,31.24 -12.047,21.4 -23.903,42.82 -35.508,63.44"
         style="fill:#231f20;fill-opacity:1;fill-rule:evenodd;stroke:none"
         id="path32"
         inkscape:connector-curvature="0" /><path
         d="m 501.406,949.871 c 134.91,27.52 267.949,60.189 401.028,91.849 33.289,7.92 66.636,15.41 99.896,23.67 32.98,8.21 66.22,14.97 99.91,23.21 43.77,10.71 87.77,21.34 132.56,31.72 44.73,10.37 87.49,20.34 133.05,31.25 43.81,10.49 88.07,20.4 132.57,31.72 10.69,2.73 20.86,5.91 31.25,9.94 14.87,5.77 31.14,7.96 38.83,20.36 4.89,-4.8 11.13,-10 11.36,-17.99 -259.44,-63.47 -522.89,-122.94 -782.172,-186.54 -80.313,-20.001 -163.754,-37.529 -243.36,-59.189 -13.965,-3.801 -25.867,-7.082 -44.508,-8.992 -4.304,-0.449 -9.691,-1.188 -14.675,-1.899 -4.954,-0.699 -11.614,-2.14 -15.153,-1.421 -4.781,0.98 -17.015,15.589 -20.836,19.41 -20.093,20.101 -40.629,40.64 -60.125,60.141 -54.156,54.15 -104.863,107.34 -158.14,161.92 -26.59,27.24 -53.25,54.2 -76.231,83.81 2.113,2.42 4.551,4.71 4.742,8.99 0.137,3.34 -2.031,6.48 -3.32,10.42 -5.184,15.8 -8.492,44.25 -10.887,65.34 -0.933,8.18 -3.109,20.57 0.477,24.61 0.394,0.09 0.441,-0.18 0.473,-0.47 5.238,-3.35 11.734,-11.32 12.777,-18.46 0.586,-3.99 -1.098,-7.13 -1.414,-11.37 -0.973,-12.77 0.781,-25.61 2.367,-37.4 1.488,-11.16 4.336,-22.92 6.625,-32.67 0.777,-3.3 1.234,-7.36 2.367,-9.95 1.399,-3.19 5.957,-6.28 9.946,-9.94 10.14,-9.31 20.046,-20.34 29.824,-29.35 28.379,-26.16 53.211,-51.23 80.492,-77.65 33.516,-32.46 66.805,-64.88 100.844,-97.06 33.492,-31.66 67.898,-64.45 99.433,-98.009"
         style="fill:#231f20;fill-opacity:1;fill-rule:evenodd;stroke:none"
         id="path34"
         inkscape:connector-curvature="0" /><path
         d="m 1564.81,1281.3 c 0.33,0 0.63,0 0.95,0 -1.76,-12.29 -2.54,-28.08 -1.89,-42.61 0.45,-10.39 3.24,-20.28 -2.84,-26.99 -6.65,17.21 -5.25,46.67 -3.32,68.19 2.14,0.69 5.2,0.47 7.1,1.41"
         style="fill:#231f20;fill-opacity:1;fill-rule:evenodd;stroke:none"
         id="path36"
         inkscape:connector-curvature="0" /><path
         d="m 449.797,1251.47 c 9.09,-17.15 10.808,-48.62 5.215,-71.02 -1.903,1.09 -6.02,3.12 -6.637,6.15 -0.73,3.6 2.145,13.44 2.367,18.47 0.813,17.75 -3.601,34.45 -8.996,45.46 2.453,0.54 4.699,1.29 8.051,0.94"
         style="fill:#231f20;fill-opacity:1;fill-rule:evenodd;stroke:none"
         id="path38"
         inkscape:connector-curvature="0" /><path
         d="m 518.445,1033.2 c 2.711,3.86 2.18,11.15 0,15.15 60.68,12.56 120.871,25.59 181.34,38.35 -59.664,-18.61 -121,-35.55 -181.34,-53.5"
         style="fill:#231f20;fill-opacity:1;fill-rule:evenodd;stroke:none"
         id="path40"
         inkscape:connector-curvature="0" /><path
         d="m 492.875,1065.39 c 8.766,-32.9 16.258,-67.081 17.523,-107.468 -1.867,-0.934 -5.23,-2.5 -7.097,-1.891 -1.863,38.449 -9.399,73.519 -17.047,106.999 0,0.32 0,0.63 0,0.95 2.469,0.21 4.676,0.7 6.621,1.41"
         style="fill:#231f20;fill-opacity:1;fill-rule:evenodd;stroke:none"
         id="path42"
         inkscape:connector-curvature="0" /><path
         d="m 1563.87,1589.52 c -23.67,-14.03 -48.22,-29.86 -75.76,-41.18 -27.09,-11.15 -55.51,-23.6 -81.43,-33.62 52.23,25.1 104.79,49.88 157.19,74.8"
         style="fill:#231f20;fill-opacity:1;fill-rule:evenodd;stroke:none"
         id="path44"
         inkscape:connector-curvature="0" /><path
         d="m 1625.89,1561.12 c -0.66,-1.94 0,-2.25 -0.47,-3.79 -1.03,-3.31 -16.98,-9.02 -23.68,-11.84 -41.99,-17.67 -82.09,-34.88 -123.58,-52.56 -81.49,-34.72 -165.17,-72.32 -246.2,-106.52 -66.11,-27.91 -134.99,-54.3 -200.74,-81.44 -60.798,-25.08 -125.782,-51.15 -187.497,-76.7 -4.285,-1.77 -9.211,-2.71 -12.782,-4.74 -2.285,-1.28 -4.414,-4.83 -7.101,-5.68 -11.113,-3.5 -28.258,5.22 -38.356,9.47 -34.726,14.61 -71.019,27.61 -106.054,39.77 -48.153,16.72 -95.121,36 -141.563,53.03 -95.496,35.03 -184.742,76.13 -276.512,112.68 -0.773,5.7 -3.375,9.58 -7.57,11.84 50.742,-9.59 96.195,-30.96 141.567,-49.71 45.386,-18.76 91.597,-36.48 139.195,-53.98 45.801,-16.82 91.652,-36.88 139.672,-53.5 40.883,-14.14 82.07,-29.58 124.051,-44.97 5.933,-2.18 14.031,-6.06 18.464,-5.69 2.559,0.22 7.43,2.98 11.836,4.74 57.59,23 115.024,47.8 172.82,70.54 61.43,24.18 123.67,50.48 183.23,76.23 60.93,26.34 121.94,51.68 182.76,77.18 60.94,25.56 121.75,51.34 183.23,76.23 15.88,7.15 31.35,14.72 49.24,19.88 2.88,1.29 5.76,4.9 7.57,5.68 6.12,-2.09 13.49,-2.92 18.47,-6.15"
         style="fill:#231f20;fill-opacity:1;fill-rule:evenodd;stroke:none"
         id="path46"
         inkscape:connector-curvature="0" /><path
         d="m 643.445,1440.38 c -53.218,13.47 -107.218,28.94 -160.98,43.56 -26.356,7.18 -51.317,18.1 -75.754,26.99 -17.902,6.52 -37.277,13.31 -56.344,20.36 -6.133,2.27 -13.722,4.13 -18.469,7.11 -1.718,1.07 6.301,-1.83 8.051,-2.37 100.942,-31.7 202.684,-64.1 303.496,-95.65"
         style="fill:#231f20;fill-opacity:1;fill-rule:evenodd;stroke:none"
         id="path48"
         inkscape:connector-curvature="0" /><path
         d="m 283.137,1527.97 c 34.476,-9.35 67.136,-21.36 98.48,-31.24 1.789,-0.56 11.524,-3.07 6.153,-2.37 -15.629,2.05 -30.528,6.99 -46.872,10.89 -7.984,1.9 -16.777,2.71 -23.675,5.2 -5.703,2.08 -11.457,6.02 -17.035,9 -5.415,2.89 -10.942,6.02 -17.051,8.52"
         style="fill:#231f20;fill-opacity:1;fill-rule:evenodd;stroke:none"
         id="path50"
         inkscape:connector-curvature="0" /><path
         d="m 803.949,1347.59 c -0.066,7.79 0.196,15.26 2.844,20.35 130.578,51.38 261.457,102.47 392.027,153.88 0.53,-0.62 -2.45,-2.07 -4.26,-2.84 -129.94,-55.73 -260.537,-115.51 -390.611,-171.39"
         style="fill:#231f20;fill-opacity:1;fill-rule:evenodd;stroke:none"
         id="path52"
         inkscape:connector-curvature="0" /><path
         d="m 175.188,1359.42 c -1.321,2.9 -2.965,5.87 -4.735,8.52 -2.625,3.96 -6.25,6.75 -8.051,9.94 23.465,6.01 48.129,9.87 72.442,15.16 24.133,5.25 48.426,10.05 71.965,14.2 2.625,-1.94 3.457,-5.37 4.734,-8.05 20.012,-41.9 40.57,-85.28 61.078,-126.89 18.77,-38.07 36.363,-77.25 56.344,-117.42 2.723,-5.48 5.117,-11.26 8.996,-16.1 256.43,32.08 513.426,63.57 769.379,96.12 2.59,-0.44 -1.04,-0.16 -0.94,-0.95 -59.98,-13.01 -120.28,-26.72 -180.86,-40.24 -29.786,-6.65 -60.157,-12.76 -89.966,-20.36 -59.551,-15.19 -118.918,-26.92 -179.441,-41.67 -14.762,-3.59 -30.02,-7.24 -44.981,-10.41 -44.73,-9.5 -89.261,-20.19 -134.468,-30.78 -21.329,-4.99 -44.555,-10.69 -67.231,-15.62 -7.117,-1.55 -18.332,-5.4 -22.723,-4.74 -2.57,0.39 -6.656,5.53 -9.945,8.53 -47.269,43.03 -93.914,86.89 -138.726,131.62 -42.336,39.7 -86.477,82.69 -128.313,124.52 -9.73,9.73 -17.898,25.25 -34.558,24.62"
         style="fill:#231f20;fill-opacity:1;fill-rule:evenodd;stroke:none"
         id="path54"
         inkscape:connector-curvature="0" /><path
         d="m 814.84,1084.81 c 4.082,1.11 -3.223,-1.32 -5.207,-1.9 -89.512,-25.92 -177.953,-49.68 -268.461,-74.8 -1.77,-0.49 -5.356,-1.9 -8.992,-2.84 -3.66,-0.96 -6.821,-1.85 -6.629,2.36 0.097,2.22 3.105,2.78 7.101,3.79 93.989,23.68 188.332,49.81 282.188,73.39"
         style="fill:#231f20;fill-opacity:1;fill-rule:evenodd;stroke:none"
         id="path56"
         inkscape:connector-curvature="0" /></g></g></svg>