<svg xmlns="http://www.w3.org/2000/svg" width="266.92" height="343.093" viewBox="0 0 267 270"><g fill="#231f20" fill-rule="evenodd"><path d="M248.952 131.908c1.644-12.944.772-26.63-1.543-38.17a112.138 112.138 0 0 0-10.948-30.663c-4.793-9.036-10.582-17.095-17.189-24.348-6.584-7.23-14.181-13.383-22.593-19.015-12.32-8.25-27.171-14.47-45.048-17.261-5.646-.882-13.031-1.708-19.577-1.403-3.7.172-7.165.244-10.525.56-3.344.316-6.552.815-9.683 1.404-18.653 3.512-33.491 10.667-46.52 20.067-17.172 12.39-30.53 28.769-39.294 49.469-4.371 10.324-7.574 22.199-8.63 35.715-1.11 14.188.62 28.346 3.789 39.925 6.336 23.15 18.403 40.89 33.75 55.08 16.047-19.505 33.208-37.892 50.31-56.344 2.263 4.543 5.754 7.859 7.297 13.121-.345.588-.9 1.088-1.403 1.544-16.492 14.979-32.669 29.995-49.819 44.346-.413.346-1.69 1.352-1.685 1.473.01.163 1.24.973 1.614 1.263 8.211 6.377 17.438 12.157 27.576 16.279 11.198 4.553 23.602 8.012 38.1 8.7 31.914 1.52 54.225-8.292 72.764-20.488.094-.378-.36-.57-.562-.773-15.374-15.374-30.586-30.658-45.96-46.028-.656-.657-1.428-1.164-1.332-1.754.538-3.307 1.519-6.156 2.879-8.702 1.317-2.472 2.992-4.678 4.49-7.157 2.975-4.925 5.223-10.083 6.875-16.348 9.792 9.55 19.378 19.308 29.05 28.979l21.752 21.752c2.421 2.42 4.804 4.877 7.368 7.157 12.144-15.544 21.604-34.001 24.697-58.38zM130.441-.005h6.034c.017.054.06.081.14.07 21.204.535 38.701 5.532 53.677 12.631 22.547 10.683 40.003 26.14 53.608 45.817a125.182 125.182 0 0 1 11.86 21.332c6.759 15.616 11.156 33.339 11.156 55.222-.001 10.689-1.53 20.513-3.65 29.469-6.303 26.661-19.463 47.32-35.855 63.71-11.076 11.078-24.035 20.112-39.294 27.017-15.184 6.87-33.238 11.648-54.729 11.648-21.49-.002-39.48-4.844-54.66-11.648-15.289-6.854-28.214-16.005-39.294-27.086-10.942-10.941-20.4-23.769-27.295-39.012-3.422-7.565-6.41-15.689-8.49-24.698C1.572 155.469 0 145.68 0 134.925c0-21.757 4.364-39.6 11.227-55.08C18.01 64.544 26.974 51.187 37.96 40.2 49.07 29.092 61.64 19.703 76.693 12.625 91.703 5.567 109.218.64 130.44-.005"/><path d="M133.247 28.692c.06-.012.068.028.07.072 9.22 23.295 18.296 45.241 26.383 69.675 2.039 6.161 4.277 12.066 5.403 18.594.596 3.45.133 7.235-.56 10.736-1.343 6.767-3.518 12.367-6.387 17.612-1.38 2.523-3.05 4.831-4.63 7.367a29.956 29.956 0 0 0-3.58 8.42c-.798 3.132-1.6 7.192-.84 10.736.247 1.165 1.226 2.255 2.105 3.297 4.12 4.892 8.501 9.352 12.138 14.806.61.914 1.488 2.189 1.614 3.157.217 1.695 0 3.69 0 5.613 0 5.375.057 11.512-.071 16.63-21.283.117-43.058.117-64.343 0-.128-5.22-.07-11.118-.07-16.699 0-2.005-.278-4.58.28-6.035.748-1.946 2.082-3.706 3.438-5.473 3.256-4.235 6.643-7.943 10.105-12.068.928-1.107 1.823-1.939 2.105-3.37.7-3.547-.019-7.566-.842-10.734-.827-3.179-2.182-6.04-3.648-8.35-1.586-2.497-3.274-4.817-4.631-7.369-2.749-5.164-5.096-10.825-6.385-17.54-.685-3.562-1.065-7.4-.492-10.805.554-3.29 1.52-6.432 2.456-9.544 4.543-15.099 10.19-29.81 15.718-44.135 4.414-11.442 8.726-22.837 13.542-34.242-.007 18.814-.211 37.782-.211 56.696 0 2.7.213 5.466 0 8.069-.094 1.144-.486 2.385-.771 3.579-1.71 7.156-3.357 13.834-5.263 20.84-.32 1.176-.846 2.626-.773 3.717.276 4.065 2.995 7.19 7.44 7.159 4.046-.031 7.268-2.987 7.296-7.299.008-1.17-.436-2.355-.771-3.648-1.57-6.036-2.899-11.584-4.421-17.681-.595-2.386-1.262-4.822-1.614-7.158-.008-.045.004-.094 0-.141-.185-2.573.07-5.317.07-8 0-18.677.177-37.753.14-56.484M214.15 41.815c.06-.014.066.026.071.069-.2 9.012-.356 18.187-3.932 23.997-1.533 2.496-4.648 4.698-7.436 6.386-2.034 1.232-4.236 2.372-6.876 3.226-.825.268-1.984.692-2.668.703-.842.013-2.13-.517-2.806-.843-.822-.393-1.532-.978-2.104-1.542-1.122-1.108-2.347-2.971-2.455-4.772-.101-1.663.767-4.352 1.261-5.684a17.02 17.02 0 0 1 2.456-4.42c2.103-2.718 4.884-4.096 8.35-5.403 3.378-1.273 6.746-2.563 9.473-4.35 2.85-1.869 5.01-4.533 6.667-7.367M57.186 55.216c-2.62-2.39-5.103-5.032-7.649-7.579-.829-.829-1.78-1.56-2.384-2.525 4.555-.94 9.163-2.204 13.542-3.088 1.186 1.161 2.344 2.275 3.648 3.579.103.104 1.19 1.097 1.193 1.193.013.293-1.872 1.873-2.105 2.105-2.075 2.076-4.253 4.298-6.245 6.315M86.375 63.075c-6.483 2.122-11.157 6.057-12.981 12.84-.334.081-.78-.499-1.123-.842-5.442-5.444-11.105-11.208-16.628-16.629a457.142 457.142 0 0 1 13.05-13.052c5.906 5.883 11.852 11.725 17.682 17.683"/><path d="M110.653 77.037c-4.19 11.342-8.374 22.688-11.718 34.874-.416.077-.615-.404-.841-.631-4.24-4.24-8.76-8.69-13.051-12.981-2.284-2.284-4.743-4.578-6.878-7.018-2.251-2.573-4.578-6.045-4.349-10.805.47-9.81 7.056-15.56 15.998-16.98.12-.02.15-.064.281-.07 5.22-.24 9.469 2.24 12.139 4.982 2.907 2.985 5.888 5.68 8.42 8.63M184.89 69.53c.06-.013.066.027.07.07.772 3.244 2.521 5.45 5.263 6.737.884.414 1.85.599 2.806 1.123-.622.981-1.59 1.73-2.456 2.595-2.492 2.493-5.117 5.277-7.646 7.578-3.539-1.77-6.224-4.396-8.211-7.718.659-.942 1.548-1.758 2.387-2.596 2.548-2.548 5.258-5.158 7.786-7.788M182.083 88.405c-4.639 8.036-9.862 15.49-15.927 22.103-1.888-7.047-4.205-13.667-6.527-20.279 2.031-1.848 4.446-3.408 6.807-4.981 2.408-1.607 5.025-3.356 7.439-4.561 2.08 3.228 4.704 5.913 8.208 7.718"/></g></svg>