<svg xmlns="http://www.w3.org/2000/svg" width="744.095" height="1052.363" viewBox="0 0 744.095 1052.363"><g fill="#231f20"><path d="M143.473 874.865c-18.313-5.988-35.397-21.532-41.645-37.892-4.909-12.855-3.519-42.237 2.66-56.206 2.369-5.354 15.857-26.962 29.975-48.015 30.152-44.962 35.917-54.87 44.403-76.294 11.75-29.662 24.69-91.631 29.892-143.138 2.2-21.797 14.133-174.246 14.133-180.568 0-3.33 2.913-3.587 40.742-3.587h40.74l-.722 9.508c-.4 5.23-2.09 29.325-3.757 53.545-8.303 120.615-15.058 183.794-28.138 263.222-16.95 102.944-28.303 144.757-48.916 180.19-8.172 14.045-24.963 31.289-36.095 37.066-8.931 4.635-32.17 5.801-43.272 2.17z"/><path d="M.863 465.377c-2.793-1.726 9.787-13.585 28.412-26.788 9.229-6.54 15.94-14.457 33.313-39.292 33.625-48.06 62.686-94.153 59.367-94.153-.68 0-4.594 2.217-8.698 4.928-8.924 5.888-23.025 11.086-30.083 11.086h-5.101l4.853-5.207c2.668-2.865 13.074-11.834 23.121-19.933 19.888-16.032 24.913-22.79 63.16-84.954 21.955-35.681 25.274-41.908 33.782-63.375 7.146-18.029 13.642-27.431 21.909-31.706 7.536-3.897 12.741-3.786 21.71.46 9.606 4.547 67.741 61.576 91.696 89.953 19.64 23.266 24.599 26.687 38.653 26.687 12.528 0 26.369-5.421 45.102-17.667 25.33-16.56 29.626-21.594 30.106-35.291.442-12.628 4.25-19.617 13.207-24.248 5.854-3.028 7.01-2.969 18.637.96 14.736 4.976 27.992 5.306 44.161 1.093 13.762-3.583 18.333-7.062 19.882-15.13l2.23-11.597c.93-4.838 2.257-5.93 8.006-6.603 4.731-.554 6.892.01 6.892 1.796 0 3.075 3.238 3.458 5.01.591.683-1.105 3.335-1.483 5.897-.841 3.354.843 5.495-.029 7.66-3.12l3.003-4.287 4.364 6.13c5.386 7.565 10.704 7.82 23.3 1.124 7.658-4.07 12.06-4.967 23.625-4.804 15.913.223 29.981 3.205 17.218 3.649l-7.007.244 8.973 4.067c16.77 7.608 21.755 15.26 24.211 37.17.893 7.955 2.647 18.268 3.899 22.915 5.372 19.956 26.446 27.426 30.528 10.822.655-2.671 1.06-1.875 1.216 2.39.29 7.961-5.646 12.623-16.073 12.623-8.669 0-17.466-6.508-25.06-18.54-2.73-4.323-5.352-7.473-5.824-6.999-1.325 1.325 6.351 22.45 10.404 28.636 1.982 3.023 7.15 8.065 11.486 11.208 10.094 7.312 25.81 8.035 34.037 1.562 7.198-5.662 7.196-.32-.005 6.88-6.852 6.851-16.778 6.944-29.914.28-12.273-6.226-12.67-6.216-6.693.186 7.274 7.794 18.555 12.797 29.293 12.99 8.19.147 8.797.41 4.16 1.807-5.1 1.537-14.122.326-22.094-2.964-5.16-2.13-4.26.396 1.478 4.156 2.742 1.796 9.722 3.957 15.514 4.801l10.53 1.536-9.608.25c-5.283.137-12.086-1.033-15.115-2.6-7.56-3.908-21.534-19.428-25.032-27.797-3.177-7.605-8.492-12.525-6.626-6.135 4.293 14.702 5.47 22.817 5.62 38.762.155 16.405-.336 18.921-5.088 26.102-2.892 4.371-6.146 7.948-7.231 7.948-2.624 0-2.617-.04 2.284-11.118 3.639-8.228 4.118-12.276 3.299-27.923-.526-10.066-1.93-20.036-3.121-22.157-1.613-2.874-1.872 1.063-1.017 15.447 1.023 17.22.67 20.293-3.278 28.45-4.088 8.44-16.78 19.343-19.433 16.69-.587-.586.793-2.062 3.064-3.278 5.764-3.085 11.013-21.903 9.298-33.335-1.613-10.764-5.038-11.627-5.193-1.308-.162 10.778-4.098 20.555-10.05 24.966-6.648 4.926-19.15 7.736-24.612 5.531-3.496-1.412-2.878-1.742 3.45-1.846 5.999-.099 9.213-1.634 14.51-6.933 3.889-3.889 6.804-8.823 6.8-11.51-.006-4.366-.289-4.245-3.896 1.673-3.93 6.445-9.651 10.642-14.481 10.63-1.449-.005.347-1.825 3.993-4.048 10.337-6.303 15.301-23.91 11.128-39.482-1.962-7.318-4.745-5.149-4.745 3.702 0 16.088-9.8 27.817-20.915 25.027l-5.21-1.308 5.18-4.455c9.117-7.843 8.55-31.18-1.145-47.126l-3.838-6.309-7.332 4.977c-4.033 2.737-9.928 4.975-13.103 4.975-5.676 0-5.717-.081-2.537-4.939 2.328-3.552 2.864-7.14 1.91-12.791-2.334-13.817-15.034-20.873-27.894-15.501-19.307 8.066-15.079 27.487 19.82 91.07 8.069 14.702 8.968 23.853 2.885 29.358-3.72 3.365-8.951 3.858-51.544 4.844-46.425 1.075-47.548 1.2-54.425 6.073-5.7 4.036-7.148 6.481-7.692 12.98-.909 10.821-2.3 11.63-2.3 1.335 0-8.497-2.04-10.156-7.912-6.44-1.598 1.01-3.669 1.367-4.602.793-2.634-1.632 2.543-6.697 6.844-6.697 2.117 0 6.061-2.21 8.763-4.914 4.249-4.249 4.914-6.75 4.924-18.515l.01-13.603 4.66 5.824 4.661 5.826 27.634-2.491c36.134-3.258 36.139-3.26 28.956-12.16-2.221-2.753-10.349-13.788-18.06-24.522-13.427-18.684-14.342-19.515-21.48-19.515-10.82 0-35.552 7.318-49.063 14.52-13.905 7.412-25.215 19.793-38.468 42.119-12.466 20.999-25.249 34.78-34.692 37.403-14.919 4.144-36.118 2.372-93.329-7.8-25.93-4.61-70.136-9.548-97.53-10.896l-19.463-.957-7.28 14.347c-13.982 27.558-31.26 47.37-64.394 73.838-20.065 16.03-21.289 18.23-17.4 31.327 5.357 18.032.975 22.28-22.987 22.28-10.192 0-14.81.93-18.385 3.705-9.805 7.611-31.297 15.09-35.642 12.406zM184.32 262.253c10.16-2.739 35.157-6.976 55.546-9.413 27.71-3.317 37.072-5.123 37.072-7.153 0-4.26-37.33-68.667-39.78-68.633-.69.009-5.022 6.09-9.624 13.511-12.036 19.403-26.882 35.837-49.178 54.44-10.734 8.955-19.517 16.618-19.517 17.03 0 .411-.598 2.305-1.33 4.208-1.492 3.89-3.593 4.205 26.811-3.99z"/><path d="M565.683 874.535c-13.683-3.684-22.88-8.477-37.827-19.714-47.267-35.53-64.813-100.096-64.73-238.203.036-62.337 1.564-86.951 11.996-193.373 8.445-86.146 9-90.204 12.651-92.528 3.292-2.093 74.937-1.932 76.236.172.585.949-.671 16.486-2.794 34.529-9.954 84.626-16.572 180.549-16.838 243.983-.193 46.635.174 52.555 4.25 68.544 5.737 22.504 12.454 35.567 25.235 49.083 13.144 13.897 22.849 19.5 42.534 24.553 13.447 3.452 17.807 3.76 28.852 2.035 18.596-2.901 25.126-5.107 36.22-12.224 16.588-10.645 29.107-30.438 34.107-53.924 1.29-6.056 3.731-12.136 5.425-13.512 1.692-1.376 7.54-2.503 12.993-2.503h9.913l-1.29 13.511c-2.814 29.475-17.807 83.637-29.783 107.592-30.458 60.923-93.961 96.301-147.15 81.98z"/></g></svg>