<?xml version="1.0" encoding="UTF-8" standalone="no"?>
<!-- Generator: Adobe Illustrator 14.0.0, SVG Export Plug-In . SVG Version: 6.00 Build 43363)  -->

<svg
   xmlns:dc="http://purl.org/dc/elements/1.1/"
   xmlns:cc="http://creativecommons.org/ns#"
   xmlns:rdf="http://www.w3.org/1999/02/22-rdf-syntax-ns#"
   xmlns:svg="http://www.w3.org/2000/svg"
   xmlns="http://www.w3.org/2000/svg"
   xmlns:sodipodi="http://sodipodi.sourceforge.net/DTD/sodipodi-0.dtd"
   xmlns:inkscape="http://www.inkscape.org/namespaces/inkscape"
   version="1.1"
   id="svg2"
   x="0px"
   y="0px"
   width="744.095px"
   height="1052.363px"
   viewBox="0 0 744.095 1052.363"
   enable-background="new 0 0 744.095 1052.363"
   xml:space="preserve"
   sodipodi:docname="pi_dame_sirkel.svg"
   inkscape:version="0.92.2 5c3e80d, 2017-08-06"><metadata
     id="metadata3753"><rdf:RDF><cc:Work
         rdf:about=""><dc:format>image/svg+xml</dc:format><dc:type
           rdf:resource="http://purl.org/dc/dcmitype/StillImage" /><dc:title /></cc:Work></rdf:RDF></metadata><defs
     id="defs3751" /><sodipodi:namedview
     pagecolor="#ffffff"
     bordercolor="#666666"
     borderopacity="1"
     objecttolerance="10"
     gridtolerance="10"
     guidetolerance="10"
     inkscape:pageopacity="0"
     inkscape:pageshadow="2"
     inkscape:window-width="956"
     inkscape:window-height="1041"
     id="namedview3749"
     showgrid="false"
     inkscape:zoom="0.5644152"
     inkscape:cx="391.1872"
     inkscape:cy="421.13594"
     inkscape:window-x="960"
     inkscape:window-y="37"
     inkscape:window-maximized="0"
     inkscape:current-layer="svg2" /><g
     id="g362"
     transform="matrix(0.34933347,0,0,0.34933347,224.97965,399.09711)"><path
       inkscape:connector-curvature="0"
       d="m 367.62608,287.20257 c -25.02923,0 -48.19056,3.44641 -69.4195,8.46292 -21.05193,4.97718 -40.41019,11.85875 -57.94551,20.13066 -53.19025,25.09099 -94.93742,61.29644 -126.60946,107.23716 -10.33639,14.99058 -19.900355,32.05402 -27.846446,50.22695 -15.703994,35.9386 -26.523477,77.99475 -26.523477,129.6205 0,24.94777 3.679523,48.18494 8.651083,69.23691 5.005283,21.16148 11.819434,40.21076 20.133475,57.94273 24.700585,52.69026 61.251495,95.48795 107.043375,126.79763 a 305.17608,305.17608 0 0 0 50.23255,27.84365 c 36.27286,15.85564 77.80376,26.52628 129.62331,26.52628 48.99672,0 92.06402,-12.52442 127.3622,-28.59358 35.94141,-16.36688 65.64727,-38.74739 91.43204,-64.52655 26.04601,-26.04882 47.15694,-56.8164 63.21486,-92.75217 16.15339,-36.1549 26.80717,-78.1015 26.52351,-129.62048 -0.26973,-49.3478 -12.44861,-91.83935 -28.5964,-127.36503 C 638.4674,432.21528 616.70764,403.27621 590.3723,376.93809 564.49203,351.06062 533.98006,329.8907 497.62294,313.72888 a 307.16471,307.16471 0 0 0 -92.18197,-24.83821 c -11.62003,-1.2415 -25.48987,-2.2611 -37.43852,-1.6881 z m -4.32553,-2.82285 h 16.17868 c 0.0422,0.14618 0.15735,0.21898 0.37636,0.18545 56.85011,1.43811 103.76549,14.83606 143.9201,33.86849 60.44816,28.64414 107.25682,70.0852 143.73188,122.84568 a 336.10658,336.10658 0 0 1 31.79563,57.18996 c 18.12517,41.87077 29.91369,89.39568 29.91089,148.06023 -0.003,28.661 -4.10365,55.00195 -9.78304,79.01437 -16.90055,71.48396 -52.19029,126.87347 -96.13117,170.82277 -29.69742,29.69463 -64.44789,53.92333 -105.35809,72.43052 -40.71072,18.4229 -89.12039,31.23111 -146.7373,31.23111 -57.6197,0 -105.84961,-12.98517 -146.55474,-31.23111 C 183.65531,950.41922 149.00316,925.88715 119.29168,896.17567 89.959391,866.84055 64.60435,832.44682 46.11403,791.57597 36.934857,771.29361 28.921378,749.51138 23.348724,725.35571 c -5.569852,-24.12197 -9.783066,-50.36739 -9.783066,-79.20254 0,-58.33876 11.704262,-106.17262 30.099086,-147.68387 18.189789,-41.02251 42.221883,-76.83751 71.680576,-106.29339 29.78451,-29.78454 63.49292,-54.95417 103.84694,-73.93323 40.24166,-18.92571 87.20481,-32.13267 144.10829,-33.8629"
       id="path3823"
       style="fill:#231f20;fill-rule:evenodd;stroke-width:2.80879974" /><g
       transform="matrix(0.71417141,0,0,0.71417141,110.2147,330.26189)"
       id="g3887"><path
         style="fill:#231f20;fill-opacity:1;stroke-width:1.77174532"
         d="m 155.23356,722.68528 c -16.20955,-5.30086 -31.33063,-19.05944 -36.86045,-33.53907 -4.34585,-11.37944 -3.11541,-37.38643 2.35379,-49.75046 2.09665,-4.73983 14.03596,-23.86454 26.5318,-42.49937 26.6874,-39.79845 31.7902,-48.56622 39.30189,-67.52958 10.39981,-26.25447 21.85412,-81.1041 26.45782,-126.69485 1.94814,-19.29255 12.51061,-154.23045 12.51061,-159.82582 0,-2.94785 2.57728,-3.17475 36.0607,-3.17475 h 36.06069 l -0.64043,8.41579 c -0.35226,4.62868 -1.84804,25.95607 -3.32399,47.39419 -7.35004,106.75952 -13.3277,162.68002 -24.90503,232.98451 -15.00471,91.11758 -25.05217,128.12809 -43.29796,159.49101 -7.23231,12.43171 -22.09526,27.6945 -31.94818,32.80765 -7.90597,4.10278 -28.47463,5.13426 -38.30126,1.92075 z"
         id="path3878"
         inkscape:connector-curvature="0" /><path
         style="fill:#231f20;fill-opacity:1;stroke-width:1.77174532"
         d="m 29.00538,360.23665 c -2.471667,-1.52758 8.662369,-12.02532 25.148935,-23.7117 8.168508,-5.79018 14.108743,-12.79621 29.487158,-34.77771 29.760267,-42.53854 55.484397,-83.3368 52.545547,-83.3368 -0.60114,0 -4.06571,1.9622 -7.69905,4.36045 -7.89766,5.21301 -20.38013,9.81351 -26.62685,9.81351 h -4.515447 l 4.295267,-4.60927 c 2.3624,-2.5351 11.57188,-10.4748 20.46551,-17.64378 17.60321,-14.18957 22.05085,-20.17173 55.90469,-75.19295 19.43311,-31.58382 22.37054,-37.094545 29.90145,-56.096271 6.32447,-15.957744 12.07503,-24.279858 19.39177,-28.063491 6.67028,-3.449332 11.27858,-3.351836 19.21784,0.406587 8.50181,4.024728 59.95724,54.503005 81.1608,79.619505 17.38495,20.5932 21.77284,23.62287 34.21322,23.62287 11.08871,0 23.339,-4.79906 39.92146,-15.63928 22.4206,-14.65671 26.22222,-19.11309 26.64708,-31.23654 0.39165,-11.175806 3.7611,-17.362643 11.6886,-21.462111 5.18241,-2.679924 6.20539,-2.627277 16.49686,0.849003 13.04362,4.405914 24.77722,4.696824 39.08883,0.969125 12.17986,-3.17245 16.22561,-6.251324 17.59816,-13.392449 0.54246,-2.822338 1.4303,-7.441444 1.97295,-10.264683 0.8232,-4.282742 1.99732,-5.25115 7.08698,-5.845341 4.18775,-0.488896 6.10033,0.0095 6.10033,1.589672 0,2.722762 2.86509,3.061142 4.43338,0.523602 0.60445,-0.978037 2.95343,-1.31282 5.21994,-0.743964 2.96941,0.745276 4.86376,-0.02628 6.77937,-2.76119 l 2.65845,-3.795475 3.86317,5.425311 c 4.76808,6.696168 9.4754,6.923494 20.62357,0.995948 6.77835,-3.604073 10.67468,-4.396457 20.91177,-4.252756 14.08376,0.197699 26.53671,2.836533 15.23889,3.229187 l -6.20111,0.215519 7.941,3.601999 c 14.8445,6.733404 19.25635,13.505938 21.43114,32.898415 0.78979,7.042598 2.34235,16.170678 3.45012,20.284618 4.75593,17.66216 23.40856,24.27361 27.0209,9.5776 0.58097,-2.36357 0.93943,-1.65957 1.07653,2.11421 0.25604,7.04833 -4.99666,11.17388 -14.22672,11.17388 -7.67233,0 -15.45873,-5.76024 -22.1811,-16.40916 -2.41592,-3.82708 -4.73575,-6.61517 -5.15516,-6.19576 -1.17215,1.17216 5.62221,19.87212 9.20944,25.34693 1.75307,2.67553 6.32786,7.13954 10.16621,9.92002 8.93446,6.47209 22.84543,7.11084 30.12677,1.38333 6.3715,-5.01181 6.36943,-0.28399 -0.004,6.0881 -6.06517,6.06517 -14.85024,6.14779 -26.47725,0.24902 -10.86342,-5.51137 -11.21353,-5.50162 -5.92434,0.165 6.43866,6.89816 16.42447,11.32566 25.92855,11.49621 7.2489,0.13008 7.78578,0.36346 3.68174,1.60042 -4.51304,1.36025 -12.49945,0.28872 -19.55686,-2.62394 -4.56598,-1.88442 -3.77042,0.35064 1.3096,3.67919 2.42559,1.58931 8.60455,3.50143 13.73103,4.24918 l 9.32087,1.35952 -8.50378,0.22104 c -4.67707,0.12157 -10.69806,-0.91368 -13.37999,-2.30056 -6.69009,-3.45957 -19.06045,-17.19747 -22.15534,-24.60458 -2.81238,-6.73094 -7.51686,-11.08653 -5.86502,-5.43005 3.80014,13.01314 4.84152,20.19588 4.97438,34.31005 0.13661,14.51879 -0.29786,16.74788 -4.50375,23.10339 -2.55938,3.86882 -5.44009,7.0342 -6.40074,7.0342 -2.32298,0 -2.31595,-0.0342 2.02155,-9.83981 3.22197,-7.28381 3.64533,-10.86633 2.92088,-24.71655 -0.466,-8.90891 -1.70926,-17.73418 -2.76279,-19.61169 -1.42728,-2.54358 -1.65669,0.94137 -0.90003,13.67278 0.90584,15.24192 0.59247,17.96024 -2.90283,25.18056 -3.61687,7.47147 -14.85204,17.12234 -17.1999,14.77449 -0.51943,-0.51944 0.70171,-1.82541 2.71365,-2.90217 5.101,-2.72997 9.74622,-19.38659 8.2287,-29.50611 -1.42868,-9.52716 -4.45885,-10.29031 -4.5963,-1.15759 -0.14351,9.53977 -3.62747,18.1942 -8.89584,22.09848 -5.88436,4.36074 -16.95003,6.84745 -21.78423,4.8954 -3.09434,-1.24949 -2.54798,-1.54201 3.05225,-1.63421 5.31083,-0.0874 8.15508,-1.44617 12.84516,-6.13624 3.44209,-3.44209 6.0211,-7.80844 6.01731,-10.18753 -0.005,-3.86405 -0.25427,-3.75747 -3.44869,1.48149 -3.47778,5.70369 -8.54095,9.42027 -12.81686,9.40812 -1.28214,-0.004 0.308,-1.61567 3.53364,-3.58229 9.15133,-5.57941 13.54384,-21.16333 9.85007,-34.94655 -1.73618,-6.47855 -4.19852,-4.55741 -4.19852,3.27573 0,14.24065 -8.67542,24.6217 -18.51291,22.15265 l -4.61198,-1.15753 4.58501,-3.94387 c 8.07037,-6.94184 7.56819,-27.59904 -1.01402,-41.71135 l -3.39594,-5.58417 -6.48978,4.40407 c -3.56938,2.42225 -8.78874,4.40408 -11.59861,4.40408 -5.02403,0 -5.06129,-0.0726 -2.2448,-4.37108 2.06107,-3.14559 2.53475,-6.32019 1.6895,-11.32314 -2.06614,-12.22933 -13.30669,-18.47557 -24.68939,-13.71958 -17.08808,7.13986 -13.34715,24.32969 17.54235,80.60804 7.14233,13.0128 7.93869,21.11327 2.55468,25.98575 -3.29205,2.97925 -7.92355,3.41453 -45.62244,4.28772 -41.093,0.95179 -42.08663,1.06265 -48.17333,5.37451 -5.04415,3.57329 -6.32685,5.73773 -6.80916,11.48965 -0.80311,9.5777 -2.03579,10.2929 -2.03579,1.18117 0,-7.5205 -1.80386,-8.98894 -7.00238,-5.70031 -1.41516,0.89524 -3.24778,1.21069 -4.07246,0.70101 -2.33272,-1.44171 2.2509,-5.92647 6.05708,-5.92647 1.87389,0 5.36405,-1.95698 7.75591,-4.34884 3.76164,-3.76163 4.35002,-5.97446 4.35764,-16.38864 l 0.009,-12.03981 4.12547,5.15577 4.12546,5.15577 24.46057,-2.20558 c 31.98291,-2.88385 31.98622,-2.88524 25.62894,-10.76358 -1.96581,-2.43615 -9.15961,-12.2029 -15.9862,-21.70388 -11.88316,-16.53853 -12.69317,-17.27452 -19.01176,-17.27452 -9.57765,0 -31.46748,6.4787 -43.42683,12.85297 -12.30867,6.56045 -22.31749,17.51915 -34.04938,37.28085 -11.03422,18.58647 -22.34816,30.78459 -30.70662,33.1063 -13.2045,3.6678 -31.96783,2.09977 -82.60725,-6.90344 -22.95193,-4.08065 -62.07981,-8.45234 -86.32588,-9.64506 l -17.22782,-0.84747 -6.44376,12.70037 c -12.37522,24.39102 -27.66969,41.92844 -56.99649,65.35513 -17.760951,14.18771 -18.842974,16.13585 -15.400483,27.72798 4.740033,15.96142 0.861261,19.72087 -20.346812,19.72087 -9.021379,0 -13.109396,0.82381 -16.273304,3.27934 -8.67983,6.73648 -27.701897,13.35781 -31.547321,10.98121 z M 191.38697,180.44597 c 8.99398,-2.42399 31.11865,-6.17373 49.16593,-8.33277 24.5265,-2.93416 32.81324,-4.53289 32.81324,-6.33054 0,-3.77019 -33.0422,-60.77837 -35.21027,-60.74876 -0.61077,0.008 -4.44449,5.39003 -8.51934,11.95928 -10.65259,17.17347 -23.79348,31.72022 -43.52885,48.18566 -9.50098,7.92679 -17.27451,14.70997 -17.27451,15.07373 0,0.36377 -0.52919,2.04044 -1.17597,3.72593 -1.32137,3.44342 -3.18124,3.72029 23.72977,-3.53253 z"
         id="path3880"
         inkscape:connector-curvature="0" /><path
         style="fill:#231f20;fill-opacity:1;stroke-width:1.77174532"
         d="m 528.9416,722.39201 c -12.11007,-3.26097 -20.25098,-7.50365 -33.4809,-17.44875 -41.83746,-31.4498 -57.36728,-88.59838 -57.29483,-210.84078 0.0327,-55.17566 1.38428,-76.96251 10.61816,-171.15907 7.47461,-76.24985 7.96577,-79.8418 11.19878,-81.89834 2.91262,-1.85275 66.32634,-1.70935 67.47708,0.15259 0.51881,0.83945 -0.59363,14.59262 -2.47209,30.5626 -8.81054,74.90393 -14.66989,159.80749 -14.90349,215.95547 -0.17174,41.2778 0.15308,46.51724 3.76116,60.66973 5.07806,19.91844 11.02322,31.48135 22.33716,43.44417 11.63389,12.30112 20.22296,17.2594 37.64702,21.73279 11.90265,3.05586 15.76142,3.32816 25.53763,1.80219 16.45923,-2.56914 22.23976,-4.52026 32.05807,-10.82063 14.68288,-9.42197 25.76422,-26.9412 30.19056,-47.73019 1.14113,-5.35953 3.30147,-10.7412 4.80074,-11.95928 1.49928,-1.21807 6.6745,-2.21468 11.50048,-2.21468 h 8.77452 l -1.14173,11.95928 c -2.49056,26.08808 -15.76106,74.02758 -26.36171,95.23131 -26.95904,53.92426 -83.16795,85.23876 -130.24661,72.56159 z"
         id="path3882"
         inkscape:connector-curvature="0" /></g></g></svg>