<svg xmlns="http://www.w3.org/2000/svg" width="744.095" height="1052.363" viewBox="0 0 744.095 1052.363"><g fill="#231f20"><path d="M368.142 157.838c-25.97 0-50.002 3.576-72.028 8.78-21.843 5.165-41.93 12.305-60.124 20.888-55.189 26.034-98.505 63.6-131.368 111.268-10.724 15.554-20.648 33.258-28.893 52.114-16.294 37.29-27.52 80.926-27.52 134.492 0 25.886 3.818 49.996 8.976 71.84 5.194 21.956 12.264 41.721 20.89 60.12 25.63 54.67 63.554 99.077 111.067 131.563a316.646 316.646 0 0 0 52.12 28.89c37.637 16.452 80.728 27.523 134.495 27.523 50.839 0 95.525-12.995 132.15-29.668 37.292-16.982 68.114-40.204 94.868-66.952 27.025-27.027 48.93-58.951 65.59-96.238 16.761-37.513 27.815-81.037 27.52-134.492-.279-51.202-12.916-95.29-29.67-132.152-17.052-37.513-39.63-67.54-66.955-94.868-26.853-26.85-58.512-48.816-96.235-65.585a318.71 318.71 0 0 0-95.647-25.772c-12.056-1.288-26.448-2.346-38.845-1.751zm-4.488-2.93h16.787c.044.153.163.228.39.193 58.987 1.492 107.666 15.394 149.33 35.142 62.72 29.72 111.287 72.719 149.133 127.462a348.739 348.739 0 0 1 32.991 59.34c18.806 43.444 31.038 92.755 31.035 153.625-.003 29.738-4.258 57.069-10.15 81.984-17.536 74.17-54.152 131.641-99.745 177.243-30.813 30.81-66.87 55.95-109.318 75.152-42.24 19.116-92.47 32.405-152.252 32.405-59.785 0-109.828-13.473-152.063-32.405-42.535-19.068-78.49-44.522-109.317-75.35-30.435-30.438-56.743-66.125-75.928-108.532-9.525-21.044-17.84-43.645-23.621-68.709C5.146 587.43.775 560.198.775 530.28c0-60.531 12.144-110.163 31.23-153.234 18.874-42.565 43.809-79.726 74.375-110.289 30.904-30.904 65.879-57.02 107.75-76.711 41.754-19.637 90.482-33.34 149.524-35.136" fill-rule="evenodd"/><path d="M216.086 738.034c-12.011-3.928-23.216-14.123-27.314-24.853-3.22-8.432-2.308-27.703 1.745-36.865 1.553-3.512 10.4-17.684 19.66-31.493 19.776-29.49 23.557-35.988 29.123-50.04 7.707-19.455 16.194-60.1 19.606-93.883 1.443-14.296 9.27-114.286 9.27-118.432 0-2.185 1.91-2.353 26.722-2.353h26.721l-.474 6.236c-.262 3.43-1.37 19.234-2.464 35.12-5.446 79.11-9.876 120.548-18.455 172.644-11.118 67.52-18.564 94.945-32.084 118.185-5.36 9.212-16.373 20.522-23.674 24.311-5.858 3.04-21.1 3.805-28.382 1.423z"/><path d="M122.55 469.455c-1.832-1.132 6.419-8.91 18.635-17.57 6.053-4.29 10.455-9.482 21.85-25.771 22.054-31.522 41.115-61.754 38.938-61.754-.446 0-3.013 1.454-5.705 3.232-5.853 3.862-15.102 7.271-19.731 7.271h-3.346l3.183-3.415c1.75-1.879 8.575-7.762 15.165-13.074 13.044-10.515 16.34-14.948 41.426-55.72 14.4-23.403 16.577-27.487 22.157-41.567 4.687-11.825 8.948-17.992 14.37-20.796 4.943-2.556 8.357-2.483 14.24.302 6.3 2.982 44.43 40.387 60.142 58.999 12.882 15.26 16.134 17.504 25.352 17.504 8.217 0 17.295-3.556 29.582-11.588 16.614-10.861 19.431-14.163 19.746-23.147.29-8.282 2.787-12.866 8.662-15.904 3.84-1.986 4.598-1.947 12.224.63 9.665 3.264 18.36 3.48 28.965.717 9.026-2.35 12.024-4.632 13.04-9.924l1.463-7.606c.61-3.173 1.48-3.89 5.251-4.331 3.103-.363 4.52.007 4.52 1.178 0 2.017 2.124 2.268 3.286.388.448-.725 2.188-.973 3.868-.552 2.2.553 3.604-.019 5.024-2.046l1.97-2.812 2.862 4.02c3.533 4.962 7.021 5.13 15.282.738 5.023-2.67 7.91-3.258 15.496-3.151 10.437.146 19.664 2.102 11.293 2.393l-4.596.16 5.885 2.668c11 4.99 14.269 10.009 15.88 24.379.586 5.218 1.736 11.982 2.557 15.03 3.524 13.089 17.346 17.988 20.023 7.098.43-1.752.696-1.23.798 1.567.19 5.222-3.703 8.28-10.542 8.28-5.686 0-11.456-4.269-16.437-12.16-1.79-2.836-3.51-4.902-3.82-4.591-.869.869 4.166 14.725 6.824 18.782 1.3 1.983 4.69 5.29 7.534 7.351 6.62 4.796 16.928 5.27 22.324 1.025 4.721-3.714 4.72-.21-.003 4.512-4.494 4.494-11.004 4.555-19.62.184-8.05-4.084-8.31-4.077-4.39.122 4.771 5.112 12.17 8.393 19.213 8.52 5.372.096 5.77.269 2.729 1.185-3.345 1.008-9.263.214-14.492-1.944-3.384-1.397-2.794.26.97 2.726 1.798 1.178 6.376 2.595 10.175 3.149l6.907 1.007-6.302.164c-3.465.09-7.927-.677-9.914-1.705-4.958-2.563-14.124-12.743-16.418-18.232-2.084-4.988-5.57-8.215-4.346-4.024 2.816 9.643 3.588 14.966 3.686 25.424.102 10.76-.22 12.41-3.337 17.12-1.897 2.867-4.031 5.213-4.743 5.213-1.721 0-1.716-.026 1.498-7.292 2.387-5.397 2.701-8.052 2.164-18.315-.345-6.602-1.266-13.141-2.047-14.532-1.058-1.885-1.228.697-.667 10.131.671 11.295.44 13.31-2.15 18.66-2.681 5.536-11.006 12.687-12.746 10.947-.385-.384.52-1.352 2.01-2.15 3.78-2.023 7.223-14.366 6.098-21.864-1.058-7.06-3.304-7.626-3.406-.858-.106 7.069-2.688 13.482-6.592 16.375-4.36 3.231-12.56 5.074-16.142 3.628-2.293-.926-1.888-1.143 2.262-1.211 3.935-.065 6.043-1.072 9.518-4.547 2.55-2.551 4.462-5.787 4.46-7.55-.005-2.863-.19-2.784-2.556 1.098-2.578 4.227-6.33 6.98-9.498 6.972-.95-.003.228-1.197 2.619-2.655 6.78-4.134 10.036-15.682 7.299-25.896-1.287-4.8-3.112-3.377-3.112 2.428 0 10.552-6.428 18.245-13.718 16.415l-3.417-.858 3.397-2.922c5.98-5.144 5.608-20.451-.751-30.909l-2.517-4.138-4.809 3.264c-2.645 1.795-6.512 3.263-8.594 3.263-3.723 0-3.75-.053-1.664-3.239 1.527-2.33 1.878-4.683 1.252-8.39-1.53-9.062-9.86-13.69-18.295-10.167-12.663 5.291-9.89 18.029 13 59.732 5.292 9.643 5.882 15.645 1.892 19.256-2.44 2.207-5.871 2.53-33.807 3.177-30.45.705-31.186.787-35.697 3.983-3.738 2.647-4.688 4.251-5.045 8.514-.596 7.097-1.509 7.627-1.509.875 0-5.573-1.337-6.661-5.189-4.224-1.048.663-2.406.897-3.018.52-1.728-1.07 1.668-4.392 4.489-4.392 1.388 0 3.975-1.45 5.747-3.223 2.787-2.787 3.223-4.427 3.23-12.144l.006-8.922 3.057 3.82 3.057 3.821 18.125-1.634c23.7-2.137 23.703-2.138 18.992-7.976-1.457-1.805-6.788-9.043-11.846-16.083-8.806-12.255-9.406-12.8-14.088-12.8-7.097 0-23.318 4.8-32.18 9.524-9.12 4.861-16.538 12.982-25.231 27.625-8.176 13.773-16.56 22.812-22.754 24.532-9.785 2.718-23.689 1.556-61.213-5.115-17.008-3.024-46.002-6.263-63.969-7.147l-12.766-.628-4.775 9.41c-9.17 18.075-20.503 31.07-42.235 48.43-13.16 10.513-13.963 11.957-11.412 20.547 3.513 11.827.639 14.613-15.077 14.613-6.685 0-9.714.61-12.059 2.43-6.431 4.992-20.527 9.898-23.377 8.137zm120.327-133.227c6.664-1.796 23.059-4.575 36.432-6.174 18.175-2.175 24.315-3.36 24.315-4.691 0-2.794-24.485-45.038-26.091-45.016-.453.006-3.294 3.994-6.313 8.862-7.894 12.726-17.631 23.505-32.255 35.706-7.04 5.874-12.801 10.9-12.801 11.17 0 .27-.392 1.512-.872 2.76-.979 2.552-2.357 2.758 17.585-2.617z"/><path d="M493.009 737.817c-8.974-2.416-15.006-5.56-24.81-12.93-31.002-23.304-42.51-65.652-42.456-156.235.024-40.886 1.026-57.03 7.868-126.831 5.539-56.502 5.903-59.164 8.298-60.688 2.159-1.373 49.15-1.267 50.002.113.384.622-.44 10.813-1.832 22.647-6.529 55.505-10.87 118.42-11.044 160.026-.127 30.587.114 34.47 2.787 44.957 3.763 14.76 8.169 23.328 16.552 32.193 8.621 9.115 14.986 12.79 27.897 16.104 8.82 2.264 11.68 2.466 18.924 1.335 12.197-1.903 16.48-3.35 23.756-8.018 10.88-6.982 19.091-19.964 22.371-35.368.846-3.972 2.447-7.96 3.558-8.862 1.11-.903 4.945-1.642 8.522-1.642h6.502l-.846 8.862c-1.846 19.332-11.68 54.856-19.535 70.568-19.977 39.959-61.628 63.163-96.514 53.77z"/></g></svg>