<?xml version="1.0" encoding="UTF-8" standalone="no"?>
<!-- Generator: Adobe Illustrator 14.0.0, SVG Export Plug-In . SVG Version: 6.00 Build 43363)  -->

<svg
   xmlns:dc="http://purl.org/dc/elements/1.1/"
   xmlns:cc="http://creativecommons.org/ns#"
   xmlns:rdf="http://www.w3.org/1999/02/22-rdf-syntax-ns#"
   xmlns:svg="http://www.w3.org/2000/svg"
   xmlns="http://www.w3.org/2000/svg"
   xmlns:sodipodi="http://sodipodi.sourceforge.net/DTD/sodipodi-0.dtd"
   xmlns:inkscape="http://www.inkscape.org/namespaces/inkscape"
   version="1.1"
   id="svg2"
   x="0px"
   y="0px"
   width="744.095px"
   height="1052.363px"
   viewBox="0 0 744.095 1052.363"
   enable-background="new 0 0 744.095 1052.363"
   xml:space="preserve"
   sodipodi:docname="realfagskjelleren-square.svg"
   inkscape:version="0.92.2 5c3e80d, 2017-08-06"><metadata
     id="metadata476"><rdf:RDF><cc:Work
         rdf:about=""><dc:format>image/svg+xml</dc:format><dc:type
           rdf:resource="http://purl.org/dc/dcmitype/StillImage" /></cc:Work></rdf:RDF></metadata><defs
     id="defs474" /><sodipodi:namedview
     pagecolor="#ffffff"
     bordercolor="#666666"
     borderopacity="1"
     objecttolerance="10"
     gridtolerance="10"
     guidetolerance="10"
     inkscape:pageopacity="0"
     inkscape:pageshadow="2"
     inkscape:window-width="1916"
     inkscape:window-height="1041"
     id="namedview472"
     showgrid="false"
     inkscape:zoom="0.63429518"
     inkscape:cx="222.66545"
     inkscape:cy="517.65232"
     inkscape:window-x="0"
     inkscape:window-y="37"
     inkscape:window-maximized="0"
     inkscape:current-layer="svg2" /><g
     id="layer1"
     transform="matrix(1.1171393,0,0,1.1171393,-46.630997,91.036657)"><path
       id="path2830"
       d="m 253.906,47.594 c -9.871,0.145 -19.812,7.641 -27.5,27.25 -7.141,20.514 -9.641,25.319 -32.375,61.875 -34.47,55.423 -37.767,60.159 -44.969,65.344 -10.367,7.462 -33.656,27.476 -33.656,28.906 0,6.013 24.661,-0.506 34.281,-9.062 l 4.406,-3.938 -4.219,8.438 c -7.755,15.608 -66.269,102.018 -70.344,103.875 -5.454,2.485 -35.248,26.435 -35.812,28.781 -0.259,1.076 0.789,2.264 2.312,2.625 3.572,0.847 11.53,-0.443 13.406,-2.156 0.801,-0.731 2.659,-1.344 4.188,-1.344 3.298,0 7.62,-2.279 15.438,-8.188 5.411,-4.089 6.448,-4.261 17.625,-3.625 19.386,1.104 24.994,-4.291 19.781,-18.969 -1.4,-3.941 -2.594,-8.266 -2.594,-9.625 0,-3.871 10.098,-14.062 23.656,-23.906 22.078,-16.03 42.125,-40.272 53.062,-64.125 l 3.719,-8.188 21.469,0.781 c 27.756,0.99 66.663,5.933 100.375,12.688 31.158,6.243 56.062,7.22 67.312,2.719 8.449,-3.381 18.65,-15.043 27.75,-31.875 8.545,-15.806 18.353,-27.725 28.438,-34.531 3.803,-2.566 7.293,-4.688 7.719,-4.688 0.426,0 3.706,-1.326 7.312,-2.969 9.824,-4.475 32.451,-9.813 36.938,-8.688 2.634,0.661 6.07,4.369 10.531,11.312 3.642,5.668 10.894,15.625 16.094,22.156 5.2,6.531 8.924,11.92 8.281,11.938 -0.643,0.017 -5.678,0.657 -11.156,1.469 -5.478,0.812 -17.29,1.95 -26.219,2.5 l -16.219,1 c -5.328,-4.337 -5.424,-12.197 -9.625,-9.625 -0.622,0 1.574,8.744 1.406,12.438 -0.266,5.838 0.016,6.159 -1.027,10.623 -0.874,3.74 -5.881,8.657 -8.782,8.921 -8.889,0.811 -4.385,3.231 -8.628,3.362 -2.41,0.886 -2.835,4.099 0,3.812 0.06,0.046 0.094,0.078 0.156,0.125 l 1.125,0.844 0.75,7.062 c 0.61,5.751 0.922,7.392 1.594,8.719 1.256,2.48 2.812,4.088 5.219,5.406 l 2.188,1.219 0.25,2.375 0.25,2.344 -1.562,1.344 c -4.163,3.542 -5.001,6.302 -4.312,14.469 0.471,5.579 0.479,5.822 -0.344,7.031 -1.501,2.208 -0.433,4.928 1.219,3.094 0.627,-0.696 0.695,-0.661 1.344,0.531 0.371,0.683 1.162,1.546 1.781,1.938 1.365,0.864 4.539,1.511 6.469,1.312 1.098,-0.113 1.497,0.011 1.75,0.594 0.553,1.273 1.872,0.619 2.25,-1.125 1.219,-5.622 0.025,-20.081 -2.125,-25.75 -1.501,-3.956 -1.976,-8.81 -1.281,-12.906 0.456,-2.693 0.413,-4.044 -0.281,-11 -0.566,-5.675 -0.949,-8.276 -1.656,-10.844 1.66,-0.647 3.414,-1.368 5.375,-2.25 6.951,-7.441 9.867,-7.356 50.75,-7.344 29.787,0.009 36.771,0.149 41.656,-2.062 12.755,-7.402 4.968,-20.59 -0.656,-30.562 -11.501,-19.764 -24.181,-40.387 -27.5,-63.281 -0.129,-9.718 7.418,-15.897 16.625,-16.188 11.687,0.056 17.732,7.803 17.375,19.812 -0.3,6.033 -0.159,8.532 -10.281,10.844 9.332,3.673 24.021,-1.007 28.344,-7.969 8.093,9.313 11.248,21.844 10.344,34.812 -0.549,7.872 -5.392,14.333 -11.062,12.562 -2.91,-0.909 -2.916,-0.951 0.188,2.031 3.323,3.193 8.315,4.759 11.812,3.688 5.206,-1.595 10.194,-6.772 11.969,-12.469 2.283,-7.287 2.542,-10.352 2.344,-19.156 6.37,14.766 3.528,33.136 -8.312,39.312 -3.729,1.945 -6.038,2.562 -9.438,2.438 -2.48,-0.091 -4.382,0.064 -4.219,0.375 0.288,0.549 6.297,1.894 9.25,2.062 5.967,0.34 13.907,-5.377 16.125,-11.625 l 1.312,-3.688 -0.094,3.594 c -0.141,4.513 -3.577,9.49 -8.812,12.812 -7.302,4.634 -15.365,3.175 -23.562,-4.219 l -3.938,-3.531 2.438,4.031 c 3.068,5 9.072,9.563 13.406,10.156 9.154,1.252 21.067,-3.163 25.781,-9.531 3.212,-4.339 5.525,-12.998 5.656,-21.219 0.088,-5.513 0.218,-5.854 1.094,-3.062 1.352,4.306 2.136,12.113 1.656,16.219 -0.613,5.256 -3.193,13.708 -4.969,16.281 -2.475,3.586 -12.791,8.482 -22.781,10.781 -4.524,1.041 3.98,0.726 10.031,-0.375 9.062,-1.649 18.262,-7.113 23.062,-13.656 6.051,-8.247 7.454,-21.058 4.438,-39.938 -1.732,-10.843 0.094,-6.68 2.219,5.062 4.33,23.919 -0.765,41.574 -14.656,50.594 -2.883,1.872 -5.107,3.678 -4.906,4.062 0.752,1.435 14.755,-6.756 19.219,-11.25 7.759,-7.811 9.598,-13.959 9.031,-30.219 -0.399,-11.474 -1.647,-19.841 -4.156,-27.938 -3.048,-9.835 -2.141,-9.722 2.438,0.219 3.439,7.468 5.399,10.653 8.594,14.219 5.552,6.198 13.525,11.998 18.938,13.688 9.056,2.827 22.517,-0.104 27.344,-5.938 2.678,-3.236 5.201,-9.171 5.219,-12.25 0.009,-1.484 -0.607,-0.596 -1.812,2.656 -2.242,6.052 -3.929,8.034 -9.344,10.844 -7.755,4.023 -19.286,2.624 -27.719,-3.312 -2.496,-1.757 -3.673,-2.689 -2.625,-2.094 1.048,0.595 4.731,2.024 8.188,3.156 13.209,4.328 26.607,-2.371 29.156,-14.531 1.313,-6.268 0.427,-7.076 -1.188,-1.094 -4.232,15.687 -25.164,17.533 -41.375,3.656 -6.938,-5.939 -8.823,-8.675 -3.062,-4.469 9.186,6.706 20.265,9.56 27.875,7.188 7.685,-2.395 12.695,-11.664 11.281,-20.75 -0.938,-6.032 -1.662,-7.115 -1.375,-2.031 0.831,14.7 -21.01,20.831 -35,9.812 -8.634,-6.8 -13.195,-14.167 -17,-27.406 l -2.344,-8.125 3.344,6.156 c 6.317,11.725 16.521,19.602 24.938,19.125 2.446,-0.139 6.144,-1.211 8.688,-2.531 3.97,-2.06 4.471,-2.684 5.531,-6.469 0.647,-2.31 0.78,-5.646 0.25,-7.375 -1.332,-4.345 -5.674,-7.82 -8.812,-7.062 -4.284,1.034 -5.052,7.48 -1,8.344 1.287,0.274 1.302,-0.036 0.188,-1.438 -2.517,-3.166 2.311,-5.923 5.031,-2.875 2.08,2.331 2.266,6.642 0.344,8.812 -2.484,2.806 -8.166,3.815 -12.219,2.156 -7.968,-3.261 -12.122,-11.512 -14.938,-29.594 -0.037,-13.842 0.429,-34.341 -29.219,-43.375 5.209,-0.463 16.205,1.367 27.125,9.688 -10.581,-13.274 -24.802,-14.173 -42.188,-14.5 -2.109,-10e-4 -12.476,1.457 -16.625,4.406 -11.735,8.344 -17.257,6.894 -23.062,-6.125 -0.38,-0.851 -1.314,-0.495 -2.156,0.781 -0.834,1.264 -2.584,3.658 -3.906,5.344 -2.403,3.065 -2.406,3.065 -4.781,0 -2.353,-3.035 -2.418,-3.013 -5.344,0.781 -2.953,3.829 -2.966,3.821 -3,0.375 -0.035,-3.556 -2.199,-4.618 -3.875,-1.906 -0.522,0.846 -2.698,1.101 -4.844,0.562 -4.453,-1.118 -6.544,1.151 -6.594,7.094 -0.019,2.107 -0.791,6.491 -1.688,9.719 -2.206,7.943 -7.815,10.413 -20.875,13.094 -9.904,2.034 -12.745,3.669 -27.125,0.906 -9.859,-3.721 -10.043,-4.744 -20.156,-6.25 -16.107,6.625 -18.86,18.385 -16.281,30.312 1.203,5.565 -17.169,19.49 -24.844,24.156 -3.565,2.167 -7.838,4.764 -9.469,5.781 -12.316,7.682 -20.084,10.229 -31.375,10.312 -14.651,0.109 -16.177,-0.891 -32.094,-20.938 C 333.596,113.966 288.762,68.193 275.692,58.368 269.198,51.822 261.583,47.481 253.906,47.594 Z m 2.094,57.594 11.594,18.875 c 12.698,20.719 24.718,42.511 23.844,43.188 -0.308,0.238 -11.938,1.633 -25.844,3.094 -37.75,3.964 -63.49,9.107 -73.906,14.781 -3.674,2.001 -5.781,1.8 -5.781,-0.531 0,-2.504 13.753,-15.792 23.75,-22.938 13.729,-9.812 28.887,-27.436 41.469,-48.312 z m 201.844,127.687 c -0.033,1.318 -0.059,5.139 -0.062,9.781 -0.005,5.246 -0.065,9.582 -0.125,9.656 -0.06,0.074 -0.372,-1.172 -0.688,-2.781 -0.898,-4.578 -3.029,-9.058 -6.344,-13.281 -0.362,-0.462 -0.671,-0.976 -0.875,-1.375 2.026,-0.244 4.691,-0.834 8.094,-2 z m 2.25,2.219 c 0.402,0.001 1.133,3.657 1.625,8.688 0.677,6.917 -0.045,11.674 -1.875,12.5 -0.409,0.185 -0.68,-1.055 -0.438,-1.969 0.057,-0.216 0.108,-1.954 0.125,-3.844 0.032,-3.679 0.204,-12.265 0.281,-14.062 0.039,-0.892 0.148,-1.314 0.282,-1.313 z m -10.781,2.875 c 0.193,-0.043 0.571,0.353 1.406,1.344 2.498,2.965 3.605,5.508 4.75,11 0.577,2.771 1,5.124 0.938,5.219 -0.209,0.317 -3.166,-1.793 -4.156,-2.969 -0.538,-0.639 -1.222,-1.742 -1.5,-2.469 -0.651,-1.703 -1.898,-10.479 -1.656,-11.625 0.063,-0.306 0.102,-0.474 0.218,-0.5 z m 67.812,0.625 c -2.183,-0.003 -4.38,0.016 -6.594,0.031 -17.708,0.125 -35.373,0.81 -35.781,1.969 -0.832,2.36 -5.771,48.957 -9.906,93.094 -1.697,18.121 -4.086,43.266 -5.312,55.906 -4.255,43.854 -6.036,108.547 -4.062,147.781 1.998,39.721 3.127,50.115 8.656,78.562 7.083,36.447 17.111,58.48 35.438,77.906 15.042,15.945 33.144,26.707 51.531,30.625 10.636,2.266 38.961,0.689 48.562,-2.719 37.663,-13.363 67.568,-43.062 83.75,-83.125 9.131,-22.605 19.301,-63.646 21.531,-87 l 0.938,-9.688 -12.031,0.469 -12.031,0.438 -1.844,9.969 c -4.9,26.303 -17.766,45.105 -37.938,55.438 -7.169,3.672 -23.691,7.34 -33.281,7.375 -11.325,0.043 -30.401,-5.605 -39.562,-11.688 -27.074,-17.977 -38.592,-43.725 -41.031,-91.75 -2.084,-41.019 8.241,-190.034 18,-260.219 0.801,-5.759 1.04,-11.102 0.562,-11.875 -0.623,-1.006 -14.318,-1.48 -29.595,-1.499 z m -236.875,0.062 c -19.757,0 -36.266,0.524 -36.656,1.156 -0.39,0.632 -1.445,11.482 -2.375,24.125 -11.103,151.017 -12.51,164.618 -21.5,207.656 -11.763,56.308 -19.985,74.853 -55.625,125.656 -10.938,15.592 -21.505,31.637 -23.531,35.625 -8.699,17.125 -10.904,41.492 -5.125,56.938 5.703,15.244 21.816,29.674 38.094,34.062 9.694,2.615 24.185,2.564 33.188,-0.156 8.998,-2.719 19.675,-10.928 29.188,-22.375 9.039,-10.877 22.246,-38.037 27.906,-57.344 12.99,-44.309 28.644,-133.971 38.5,-220.687 2.629,-23.131 13.844,-169.892 13.844,-181.094 v -3.562 z m 179.406,20 c 0.134,-0.063 0.312,0.063 0.5,0.438 0.336,0.67 0.17,2.929 -0.219,2.969 -0.184,0.019 -0.404,-0.722 -0.5,-1.656 -0.102,-1.003 -0.003,-1.646 0.219,-1.751 z m 0.969,6.063 c 0.079,-0.025 0.178,-0.011 0.312,0 0.939,0.076 2.213,2.301 3.125,5.438 0.869,2.988 1.728,12.156 1.312,14.062 -0.141,0.644 -0.275,1.026 -0.312,0.844 -0.037,-0.182 -0.991,-4.4 -2.125,-9.344 -1.134,-4.944 -2.211,-9.456 -2.375,-10.031 -0.18,-0.634 -0.173,-0.895 0.063,-0.969 z m -3,0.969 -0.031,1.094 c -0.023,0.593 -0.066,2.526 -0.094,4.312 -0.039,2.526 -0.322,3.969 -1.25,6.438 -0.655,1.746 -1.576,3.699 -2.031,4.375 l -0.812,1.25 -0.25,-2.844 c -0.713,-7.945 0.104,-11.172 3.531,-13.875 z m 1.75,2.75 0.562,2.781 c 0.317,1.541 1.2,5.751 1.969,9.344 0.769,3.593 1.48,7.168 1.562,7.938 0.137,1.3 0.049,1.425 -1.156,1.781 -2.443,0.723 -5.787,-0.023 -6.969,-1.531 -1.291,-1.647 -1.266,-2.159 0.375,-5.844 2.167,-4.867 3.238,-8.469 3.469,-11.75 z"
       inkscape:connector-curvature="0" /></g></svg>