<?xml version="1.0" encoding="UTF-8" standalone="no"?>
<!-- Created with Inkscape (http://www.inkscape.org/) -->

<svg
   xmlns:dc="http://purl.org/dc/elements/1.1/"
   xmlns:cc="http://creativecommons.org/ns#"
   xmlns:rdf="http://www.w3.org/1999/02/22-rdf-syntax-ns#"
   xmlns:svg="http://www.w3.org/2000/svg"
   xmlns="http://www.w3.org/2000/svg"
   xmlns:sodipodi="http://sodipodi.sourceforge.net/DTD/sodipodi-0.dtd"
   xmlns:inkscape="http://www.inkscape.org/namespaces/inkscape"
   version="1.1"
   id="svg2"
   xml:space="preserve"
   width="266.92001"
   height="343.09332"
   viewBox="0 0 266.92001 343.09332"
   sodipodi:docname="prokom-square.svg"
   inkscape:version="0.92.2 5c3e80d, 2017-08-06"><metadata
     id="metadata8"><rdf:RDF><cc:Work
         rdf:about=""><dc:format>image/svg+xml</dc:format><dc:type
           rdf:resource="http://purl.org/dc/dcmitype/StillImage" /><dc:title></dc:title></cc:Work></rdf:RDF></metadata><defs
     id="defs6" /><sodipodi:namedview
     pagecolor="#ffffff"
     bordercolor="#666666"
     borderopacity="1"
     objecttolerance="10"
     gridtolerance="10"
     guidetolerance="10"
     inkscape:pageopacity="0"
     inkscape:pageshadow="2"
     inkscape:window-width="640"
     inkscape:window-height="480"
     id="namedview4"
     showgrid="false"
     inkscape:zoom="0.6878595"
     inkscape:cx="133.46001"
     inkscape:cy="171.54666"
     inkscape:window-x="0"
     inkscape:window-y="0"
     inkscape:window-maximized="0"
     inkscape:current-layer="g10" /><g
     id="g10"
     inkscape:groupmode="layer"
     inkscape:label="ink_ext_XXXXXX"
     transform="matrix(1.3333333,0,0,-1.3333333,0,343.09333)"><g
       id="g12"
       transform="scale(0.1)"><path
         d="m 1867.14,1583.89 c 12.33,97.08 5.79,199.72 -11.57,286.27 -17.35,86.44 -46.39,162.66 -82.11,229.98 -35.95,67.77 -79.37,128.21 -128.92,182.61 -49.38,54.22 -106.36,100.37 -169.45,142.61 -92.4,61.87 -203.78,108.53 -337.86,129.46 -42.34,6.61 -97.73,12.81 -146.824,10.52 -27.746,-1.29 -53.742,-1.83 -78.937,-4.2 -25.078,-2.37 -49.141,-6.11 -72.621,-10.53 -139.903,-26.34 -251.188,-80 -348.903,-150.5 -128.793,-92.93 -228.972,-215.77 -294.703,-371.02 -32.785,-77.43 -56.804,-166.49 -64.734,-267.86 -8.317,-106.41 4.652,-212.6 28.422,-299.44 47.523,-173.62 138.027,-306.68 253.125,-413.1 120.355,146.29 249.062,284.19 377.324,422.58 16.976,-34.07 43.156,-58.94 54.73,-98.41 -2.589,-4.41 -6.754,-8.16 -10.523,-11.58 -123.688,-112.34 -245.016,-224.96 -373.641,-332.59 -3.097,-2.6 -12.679,-10.14 -12.636,-11.05 0.07,-1.22 9.3,-7.3 12.105,-9.47 61.582,-47.83 130.785,-91.182 206.82,-122.092 83.985,-34.148 177.012,-60.09 285.754,-65.258 239.352,-11.39 406.682,62.192 545.722,153.668 0.71,2.832 -2.7,4.274 -4.21,5.793 -115.31,115.309 -229.4,229.939 -344.7,345.209 -4.92,4.93 -10.71,8.73 -9.99,13.16 4.03,24.8 11.39,46.17 21.59,65.26 9.88,18.54 22.44,35.09 33.67,53.68 22.32,36.94 39.18,75.62 51.57,122.61 73.44,-71.62 145.33,-144.81 217.87,-217.34 54.44,-54.44 109.05,-109.05 163.14,-163.14 18.16,-18.15 36.03,-36.58 55.26,-53.68 91.08,116.58 162.03,255.01 185.23,437.85 z m -888.835,989.35 c 15.078,0 30.175,0 45.255,0 0.13,-0.41 0.45,-0.61 1.05,-0.53 159.03,-4.01 290.26,-41.49 402.58,-94.73 169.1,-80.12 300.02,-196.05 402.06,-343.63 33.92,-49.06 64.32,-103.1 88.95,-159.99 50.69,-117.12 83.67,-250.04 83.67,-414.16 -0.01,-80.17 -11.48,-153.85 -27.37,-221.02 C 1927.22,1139.22 1828.52,984.281 1705.58,861.352 1622.51,778.27 1525.32,710.512 1410.88,658.73 1297,607.199 1161.59,571.371 1000.41,571.371 839.234,571.379 704.316,607.699 590.453,658.73 475.793,710.129 378.852,778.762 295.754,861.871 213.688,943.93 142.758,1040.14 91.0391,1154.46 65.375,1211.2 42.9609,1272.13 27.3633,1339.7 11.7969,1407.18 0,1480.6 0,1561.26 c 0,163.18 32.7305,297 84.1992,413.1 50.8748,114.76 118.1058,214.94 200.5078,297.34 83.316,83.31 177.602,153.73 290.488,206.81 112.575,52.94 243.938,89.89 403.11,94.73"
         style="fill:#231f20;fill-opacity:1;fill-rule:evenodd;stroke:none"
         id="path14"
         inkscape:connector-curvature="0" /><path
         d="m 999.352,2358.01 c 0.449,0.09 0.507,-0.21 0.527,-0.54 69.151,-174.71 137.221,-339.31 197.871,-522.56 15.29,-46.21 32.08,-90.5 40.52,-139.46 4.47,-25.87 1,-54.26 -4.2,-80.52 -10.07,-50.75 -26.38,-92.75 -47.9,-132.09 -10.35,-18.92 -22.87,-36.23 -34.73,-55.25 -11.04,-17.71 -20.64,-38.9 -26.84,-63.15 -5.99,-23.49 -12.01,-53.94 -6.31,-80.52 1.86,-8.74 9.2,-16.91 15.79,-24.73 30.9,-36.69 63.76,-70.14 91.04,-111.04 4.57,-6.86 11.16,-16.42 12.1,-23.68 1.63,-12.71 0,-27.67 0,-42.1 0,-40.31 0.43,-86.339 -0.53,-124.729 -159.62,-0.871 -322.936,-0.871 -482.573,0 -0.957,39.16 -0.519,83.389 -0.519,125.249 0,15.04 -2.09,34.35 2.101,45.26 5.606,14.6 15.61,27.8 25.781,41.05 24.415,31.76 49.821,59.57 75.782,90.51 6.961,8.3 13.672,14.54 15.789,25.27 5.246,26.61 -0.141,56.75 -6.313,80.51 -6.203,23.84 -16.363,45.3 -27.363,62.63 -11.891,18.72 -24.551,36.12 -34.73,55.26 -20.614,38.73 -38.219,81.19 -47.891,131.55 -5.133,26.72 -7.984,55.5 -3.684,81.04 4.149,24.67 11.399,48.24 18.414,71.58 34.079,113.24 76.422,223.57 117.887,331.01 33.106,85.82 65.449,171.28 101.563,256.82 -0.051,-141.11 -1.582,-283.37 -1.582,-425.22 0.007,-20.25 1.601,-41 0,-60.52 -0.704,-8.58 -3.645,-17.89 -5.782,-26.84 -12.824,-53.67 -25.175,-103.76 -39.472,-156.3 -2.403,-8.82 -6.34,-19.7 -5.793,-27.88 2.07,-30.49 22.461,-53.93 55.793,-53.69 30.352,0.23 54.512,22.4 54.722,54.74 0.06,8.77 -3.27,17.66 -5.78,27.36 -11.78,45.27 -21.74,86.88 -33.16,132.61 -4.46,17.89 -9.46,36.16 -12.103,53.68 -0.058,0.34 0.032,0.71 0,1.06 -1.386,19.3 0.52,39.88 0.52,60 0,140.08 1.336,283.15 1.055,423.63"
         style="fill:#231f20;fill-opacity:1;fill-rule:evenodd;stroke:none"
         id="path16"
         inkscape:connector-curvature="0" /><path
         d="m 1606.13,2259.59 c 0.44,0.1 0.49,-0.2 0.53,-0.52 -1.5,-67.59 -2.67,-136.4 -29.49,-179.98 -11.5,-18.72 -34.86,-35.23 -55.77,-47.89 -15.26,-9.24 -31.77,-17.79 -51.57,-24.2 -6.19,-2.01 -14.88,-5.19 -20.01,-5.27 -6.32,-0.1 -15.98,3.88 -21.05,6.32 -6.16,2.95 -11.49,7.34 -15.78,11.57 -8.41,8.31 -17.6,22.28 -18.41,35.79 -0.76,12.47 5.75,32.64 9.46,42.63 4.68,12.59 11.32,23.97 18.42,33.15 15.77,20.38 36.63,30.72 62.62,40.52 25.34,9.55 50.6,19.22 71.05,32.63 21.37,14.01 37.57,33.99 50,55.25"
         style="fill:#231f20;fill-opacity:1;fill-rule:evenodd;stroke:none"
         id="path18"
         inkscape:connector-curvature="0" /><path
         d="m 428.895,2159.08 c -19.653,17.92 -38.27,37.74 -57.364,56.84 -6.218,6.22 -13.347,11.7 -17.886,18.94 34.168,7.05 68.722,16.53 101.566,23.16 8.898,-8.71 17.582,-17.06 27.363,-26.84 0.77,-0.78 8.918,-8.23 8.949,-8.95 0.094,-2.2 -14.043,-14.05 -15.793,-15.79 -15.562,-15.57 -31.898,-32.23 -46.835,-47.36"
         style="fill:#231f20;fill-opacity:1;fill-rule:evenodd;stroke:none"
         id="path20"
         inkscape:connector-curvature="0" /><path
         d="m 647.816,2100.14 c -48.628,-15.92 -83.683,-45.43 -97.363,-96.3 -2.504,-0.61 -5.844,3.74 -8.418,6.31 -40.82,40.83 -83.289,84.06 -124.715,124.72 31.789,33.11 65.645,66.97 97.879,97.89 44.297,-44.12 88.887,-87.94 132.617,-132.62"
         style="fill:#231f20;fill-opacity:1;fill-rule:evenodd;stroke:none"
         id="path22"
         inkscape:connector-curvature="0" /><path
         d="m 829.898,1995.42 c -31.421,-85.06 -62.804,-170.16 -87.886,-261.55 -3.117,-0.58 -4.61,3.03 -6.309,4.73 -31.801,31.8 -65.691,65.17 -97.883,97.36 -17.129,17.13 -35.57,34.33 -51.582,52.63 -16.883,19.3 -34.336,45.34 -32.617,81.04 3.527,73.57 52.918,116.7 119.984,127.35 0.907,0.15 1.129,0.48 2.11,0.53 39.148,1.79 71.015,-16.8 91.039,-37.37 21.801,-22.39 44.164,-42.6 63.144,-64.72"
         style="fill:#231f20;fill-opacity:1;fill-rule:evenodd;stroke:none"
         id="path24"
         inkscape:connector-curvature="0" /><path
         d="m 1386.67,2051.72 c 0.45,0.1 0.5,-0.2 0.53,-0.52 5.79,-24.33 18.91,-40.88 39.47,-50.53 6.63,-3.1 13.88,-4.49 21.05,-8.42 -4.67,-7.36 -11.93,-12.98 -18.42,-19.46 -18.69,-18.7 -38.38,-39.58 -57.35,-56.84 -26.54,13.28 -46.68,32.97 -61.58,57.89 4.94,7.06 11.61,13.18 17.9,19.47 19.11,19.11 39.44,38.68 58.4,58.41"
         style="fill:#231f20;fill-opacity:1;fill-rule:evenodd;stroke:none"
         id="path26"
         inkscape:connector-curvature="0" /><path
         d="m 1365.62,1910.16 c -34.79,-60.27 -73.96,-116.17 -119.45,-165.77 -14.16,52.85 -31.54,102.5 -48.95,152.09 15.23,13.86 33.34,25.56 51.05,37.36 18.06,12.05 37.69,25.17 55.79,34.21 15.6,-24.21 35.28,-44.35 61.56,-57.89"
         style="fill:#231f20;fill-opacity:1;fill-rule:evenodd;stroke:none"
         id="path28"
         inkscape:connector-curvature="0" /></g></g></svg>