<?xml version="1.0" encoding="UTF-8" standalone="no"?>
<!-- Created with Inkscape (http://www.inkscape.org/) -->

<svg
   xmlns:dc="http://purl.org/dc/elements/1.1/"
   xmlns:cc="http://creativecommons.org/ns#"
   xmlns:rdf="http://www.w3.org/1999/02/22-rdf-syntax-ns#"
   xmlns:svg="http://www.w3.org/2000/svg"
   xmlns="http://www.w3.org/2000/svg"
   xmlns:sodipodi="http://sodipodi.sourceforge.net/DTD/sodipodi-0.dtd"
   xmlns:inkscape="http://www.inkscape.org/namespaces/inkscape"
   version="1.1"
   id="svg2"
   xml:space="preserve"
   width="240"
   height="309.74667"
   viewBox="0 0 240 309.74667"
   sodipodi:docname="trikom-square.svg"
   inkscape:version="0.92.2 5c3e80d, 2017-08-06"><metadata
     id="metadata8"><rdf:RDF><cc:Work
         rdf:about=""><dc:format>image/svg+xml</dc:format><dc:type
           rdf:resource="http://purl.org/dc/dcmitype/StillImage" /><dc:title></dc:title></cc:Work></rdf:RDF></metadata><defs
     id="defs6" /><sodipodi:namedview
     pagecolor="#ffffff"
     bordercolor="#666666"
     borderopacity="1"
     objecttolerance="10"
     gridtolerance="10"
     guidetolerance="10"
     inkscape:pageopacity="0"
     inkscape:pageshadow="2"
     inkscape:window-width="640"
     inkscape:window-height="480"
     id="namedview4"
     showgrid="false"
     inkscape:zoom="0.76191294"
     inkscape:cx="120"
     inkscape:cy="154.87334"
     inkscape:window-x="0"
     inkscape:window-y="0"
     inkscape:window-maximized="0"
     inkscape:current-layer="g10" /><g
     id="g10"
     inkscape:groupmode="layer"
     inkscape:label="ink_ext_XXXXXX"
     transform="matrix(1.3333333,0,0,-1.3333333,0,309.74667)"><g
       id="g12"
       transform="scale(0.1)"><path
         d="m 890.535,2315.96 c -62.957,0 -121.215,-8.67 -174.605,-21.29 -52.957,-12.52 -101.637,-29.83 -145.739,-50.63 -133.789,-63.11 -238.796,-154.17 -318.457,-269.72 -25.996,-37.71 -50.046,-80.62 -70.031,-126.34 -39.508,-90.39 -66.719,-196.18 -66.719,-326.02 0,-62.75 9.254,-121.2 21.762,-174.14 12.586,-53.23 29.731,-101.14 50.637,-145.74 62.129,-132.52 154.062,-240.182 269.242,-318.92 38.574,-26.379 80.445,-49.98 126.34,-70.039 91.234,-39.871 195.695,-66.723 326.023,-66.723 123.242,0 231.562,31.5 320.352,71.93 90.39,41.16 165.11,97.453 229.97,162.301 65.5,65.511 118.61,142.901 158.99,233.281 40.63,90.95 67.42,196.45 66.71,326.02 -0.67,124.12 -31.3,231 -71.92,320.36 -41.33,90.93 -96.06,163.73 -162.3,229.96 -65.1,65.1 -141.84,118.33 -233.29,158.99 -66.37,29.52 -144.03,53.04 -231.855,62.46 -29.223,3.14 -64.106,5.69 -94.161,4.26 -0.312,-0.01 -0.632,0 -0.949,0 z m -10.883,7.1 c 13.567,0 27.129,0 40.696,0 0.101,-0.37 0.398,-0.55 0.945,-0.47 142.987,-3.62 260.987,-37.31 361.987,-85.18 152.04,-72.05 269.77,-176.28 361.51,-308.99 30.5,-44.1 57.83,-92.7 79.97,-143.85 45.6,-105.31 75.25,-224.82 75.24,-372.39 0,-72.1 -10.33,-138.34 -24.6,-198.74 -42.51,-179.8 -131.26,-319.12 -241.81,-429.651 -74.68,-74.687 -162.09,-135.617 -264.98,-182.18 -102.39,-46.328 -224.15,-78.55 -369.083,-78.55 -144.918,0 -266.23,32.66 -368.609,78.55 C 427.813,647.82 340.652,709.531 265.93,784.262 192.141,858.051 128.363,944.559 81.8594,1047.35 58.7813,1098.37 38.6289,1153.15 24.6055,1213.91 10.6055,1274.58 0,1340.6 0,1413.13 c 0,146.72 29.4297,267.05 75.707,371.44 45.742,103.19 106.203,193.27 180.289,267.36 74.91,74.91 159.695,138.23 261.195,185.95 101.215,47.61 219.336,80.82 362.461,85.18"
         style="fill:#231f20;fill-opacity:1;fill-rule:evenodd;stroke:none"
         id="path14"
         inkscape:connector-curvature="0" /><path
         d="m 840.855,2244.98 c 0.399,0.09 0.446,-0.18 0.469,-0.47 37.676,-17.5 69.821,-38.59 88.016,-73.81 9.914,-19.21 12.851,-43.74 7.57,-67.67 -4.746,-21.5 -13.949,-40.55 -23.183,-57.73 -17.821,-33.14 -44.395,-66.82 -48.266,-113.56 -2.168,-26.15 1.902,-51.03 6.617,-73.35 4.66,-22.04 10.945,-42.07 19.406,-61.04 -32.109,25.09 -59.785,59.45 -63.41,111.67 -1.222,17.63 1.559,35.28 5.68,52.53 10.84,45.38 31.461,85.68 48.266,126.81 6.863,16.8 16.281,32.43 14.664,54.89 -1.493,20.86 -12.411,39.04 -22.235,55.36 -10.594,17.6 -22.363,32.02 -33.594,46.37"
         style="fill:#231f20;fill-opacity:1;fill-rule:evenodd;stroke:none"
         id="path16"
         inkscape:connector-curvature="0" /><path
         d="m 689.434,2173.54 c 0.402,0.08 0.445,-0.19 0.468,-0.48 19.262,-13.67 34.871,-30.45 48.266,-51.1 12.77,-19.69 25.168,-44.36 25.086,-74.29 -0.102,-33.49 -24.637,-47.02 -46.379,-60.57 -22.672,-14.14 -50.336,-28.99 -52.992,-61.51 -4.133,-50.54 20.258,-96.5 43.055,-123.03 1.332,-1.55 4.035,-2.67 3.789,-5.21 -23,12.44 -42.082,26.47 -59.149,46.37 -16.402,19.14 -33.18,50.91 -26.973,84.23 5.333,28.59 26.59,46.8 45.422,61.51 9.098,7.11 20.215,15.09 30.289,23.19 12.266,9.87 25.235,20.76 26.5,39.28 1.676,24.53 -6.296,45.44 -13.253,65.3 -7.364,21.02 -16.352,39.35 -24.129,56.31"
         style="fill:#231f20;fill-opacity:1;fill-rule:evenodd;stroke:none"
         id="path18"
         inkscape:connector-curvature="0" /><path
         d="m 1032.97,2135.2 c -0.09,0.41 0.18,0.45 0.47,0.48 29.49,-6.07 54.72,-19.09 71.45,-38.8 15.13,-17.85 28.67,-52.47 16.56,-84.23 -7.22,-18.94 -23.26,-29.88 -36.44,-43.06 -13.58,-13.59 -25.23,-28.71 -26.97,-52.53 -3.16,-43.42 1.44,-86.86 -1.41,-129.18 -17.18,26.83 -26.73,57.2 -32.66,95.12 -1.99,12.79 -4.02,25.91 -3.31,38.8 1.46,26.33 12.35,45.49 24.13,60.57 14.18,18.13 33.37,32.91 35.02,60.09 1.24,20.52 -7.67,38.13 -16.09,52.52 -4.2,7.19 -9.3,13.89 -14.19,20.35 -5.32,7.02 -10.36,14.28 -16.56,19.87"
         style="fill:#231f20;fill-opacity:1;fill-rule:evenodd;stroke:none"
         id="path20"
         inkscape:connector-curvature="0" /><path
         d="m 1294.17,1449.56 c -2.79,-78.61 -5.3,-157.49 -7.58,-236.59 32.5,4.68 56.85,17.68 75.24,37.85 17.6,19.31 32.17,45.96 32.17,81.39 0,33.49 -13.15,60.18 -29.8,79.02 -17.51,19.81 -39.51,33.81 -69.56,39.75 -0.55,-0.08 -0.51,-0.75 -0.47,-1.42 z m -790.225,132.96 c 10.375,-74.23 10.993,-154.72 14.668,-235.64 4.864,-107.09 10.164,-214.68 20.821,-313.25 -8.133,141.48 -8.911,301.79 -6.625,451.42 0.289,18.74 0.05,46.06 7.097,59.14 2.184,4.06 7.059,11.1 11.356,14.87 5.332,4.68 7.883,5.9 13.113,8.43 22.527,10.93 55.715,8.34 87.676,9.83 32.058,1.49 63.996,2.91 90.383,7.57 -43.309,1.65 -86.442,7.65 -127.766,15.14 -20.176,3.66 -39.895,7.09 -58.676,12.77 -27.554,8.34 -53.929,18.34 -63.402,43.54 4.23,-23.54 7.84,-48.67 11.355,-73.82 z m 342.11,145.75 c -59.258,0 -110.961,-4.22 -165.617,-10.41 -41.469,-4.71 -77.875,-9.11 -111.196,-21.77 -11.262,-4.28 -24.617,-10.28 -24.129,-20.35 0.5,-10.41 18.117,-16.53 29.336,-20.35 13.371,-4.54 26.254,-7.87 39.746,-10.41 86.043,-16.15 177.7,-21.29 278.231,-21.29 64.465,0.01 128.604,2.33 189.754,8.52 43.26,4.38 89.88,10.29 126.81,23.18 10.8,3.77 29.22,10.15 29.34,20.82 0.12,11.36 -20.82,18.75 -33.12,22.72 -11.38,3.67 -31.26,7.96 -44.96,10.41 -63.73,11.4 -131.61,15.45 -202.992,18.45 -35.149,1.49 -75.094,2.15 -110.254,0.48 -0.316,-0.02 -0.633,0 -0.949,0 z m 453.785,-107.89 c 85.98,-9.63 146.44,-44.3 192.59,-95.11 33.6,-37 60.73,-82.61 72.4,-143.37 3.92,-20.47 7.11,-43.24 5.67,-65.78 -5.7,-89.04 -39.76,-151.92 -87.53,-199.69 -47.97,-47.97 -111.91,-81.01 -202.06,-85.17 -0.99,-26.06 -1.92,-52.362 -2.83,-79.022 -0.3,-8.597 0.92,-17.929 -0.48,-25.547 -4.93,-26.91 -34.81,-43.64 -56.78,-54.421 -74.14,-36.379 -174.35,-49.411 -277.289,-53.942 -71.652,-3.156 -144.16,0.512 -209.621,9.461 -64.918,8.883 -126.433,22.781 -173.656,47.793 -22.883,12.117 -47.91,27.488 -50.16,61.039 -2.242,33.461 -3.324,71.119 -4.735,105.999 -2.871,71.25 -6.918,141.7 -9.933,211.51 -5.883,136.16 -13.629,272.89 -19.403,409.78 -0.132,3.28 -1.179,7.66 1.422,10.41 1.875,16.93 16.41,25.48 29.336,32.65 39.371,21.86 93.539,32.63 145.742,40.22 53.981,7.85 110.754,13.1 169.875,15.15 99.383,3.43 205.092,-0.16 294.322,-13.73 36.29,-5.52 70.03,-11.08 103.15,-20.82 32.69,-9.61 67.86,-21.98 81.86,-48.27 -0.43,-19.91 -1.45,-39.23 -1.89,-59.14"
         style="fill:#231f20;fill-opacity:1;fill-rule:evenodd;stroke:none"
         id="path22"
         inkscape:connector-curvature="0" /></g></g></svg>